<svg version="1.1" xmlns="http://www.w3.org/2000/svg" viewBox="0 0 2705.1615069969375 1401.977686031487" width="2705.1615069969375" height="1401.977686031487">
  <!-- svg-source:excalidraw -->
  
  <defs>
    <style class="style-fonts">
      @font-face {
        font-family: "Virgil";
        src: url("https://excalidraw.com/Virgil.woff2");
      }
      @font-face {
        font-family: "Cascadia";
        src: url("https://excalidraw.com/Cascadia.woff2");
      }
    </style>
    
  </defs>
  <rect x="0" y="0" width="2705.1615069969375" height="1401.977686031487" fill="#ffffff"></rect><g stroke-linecap="round" transform="translate(993.4654579182577 467.8446823101643) rotate(0 236 236)"><path d="M189.49 4.07 C206.9 -3.6, 228.5 -1.48, 247.9 -0.42 C267.31 0.65, 287.27 4.37, 305.89 10.46 C324.51 16.56, 342.96 25.68, 359.63 36.14 C376.29 46.61, 392.17 59.1, 405.89 73.25 C419.61 87.39, 432.36 104.1, 441.96 121.01 C451.57 137.92, 458.44 156.01, 463.5 174.71 C468.56 193.42, 472.2 213.6, 472.34 233.22 C472.47 252.85, 468.87 273.51, 464.3 292.48 C459.73 311.46, 454.12 329.87, 444.9 347.08 C435.68 364.3, 422.41 381.46, 409 395.79 C395.58 410.12, 380.67 422.27, 364.41 433.08 C348.16 443.89, 330.12 454.35, 311.47 460.65 C292.83 466.95, 272.2 469.61, 252.52 470.87 C232.84 472.12, 212.67 471.58, 193.4 468.2 C174.13 464.81, 154.43 458.82, 136.89 450.56 C119.36 442.29, 103.29 430.87, 88.21 418.61 C73.13 406.35, 58.12 392.52, 46.41 377.02 C34.7 361.52, 25.32 343.69, 17.93 325.62 C10.55 307.54, 4.97 287.93, 2.1 268.58 C-0.78 249.23, -1.56 229.18, 0.68 209.51 C2.92 189.84, 8.27 168.89, 15.54 150.54 C22.82 132.19, 32.89 115.07, 44.33 99.4 C55.77 83.72, 69.31 69.05, 84.19 56.5 C99.06 43.94, 113.2 33.05, 133.58 24.06 C153.96 15.06, 191.64 5.52, 206.48 2.52 C221.32 -0.48, 222.3 2.24, 222.63 6.05" stroke="#1e1e1e" stroke-width="2.5" fill="none" stroke-dasharray="1.5 8"></path></g><g stroke-linecap="round" transform="translate(1222.4654579182577 696.8446823101642) rotate(0 7 7)"><path d="M6.65 -0.12 C8.1 -0.31, 10.07 0.45, 11.26 1.37 C12.44 2.29, 13.42 3.88, 13.77 5.38 C14.12 6.88, 14.06 8.99, 13.35 10.35 C12.65 11.72, 10.95 13.05, 9.56 13.58 C8.17 14.12, 6.44 14.01, 5.03 13.58 C3.61 13.14, 1.88 12.24, 1.07 10.98 C0.25 9.72, -0.03 7.58, 0.14 6.03 C0.31 4.49, 0.98 2.71, 2.1 1.73 C3.21 0.75, 6.06 0.41, 6.83 0.17 C7.59 -0.08, 6.7 0.12, 6.69 0.24 M7.36 0.26 C8.81 0.3, 11.04 1.04, 12.09 2.06 C13.15 3.08, 13.59 4.93, 13.71 6.36 C13.83 7.79, 13.6 9.42, 12.82 10.64 C12.04 11.85, 10.46 13.23, 9.03 13.66 C7.6 14.1, 5.65 13.86, 4.26 13.24 C2.86 12.63, 1.29 11.27, 0.65 9.98 C0 8.68, 0.05 6.87, 0.39 5.46 C0.72 4.05, 1.45 2.41, 2.65 1.53 C3.85 0.64, 6.77 0.37, 7.56 0.14 C8.36 -0.09, 7.39 0.03, 7.41 0.15" stroke="none" stroke-width="0" fill="#1e1e1e"></path><path d="M7.23 -0.07 C8.67 -0.09, 10.6 0.92, 11.75 1.94 C12.89 2.96, 13.9 4.53, 14.11 6.04 C14.33 7.54, 13.85 9.7, 13.03 10.95 C12.22 12.21, 10.66 13.17, 9.21 13.58 C7.76 14, 5.72 14.05, 4.33 13.46 C2.95 12.87, 1.55 11.38, 0.89 10.04 C0.22 8.69, 0.04 6.8, 0.35 5.39 C0.66 3.98, 1.54 2.44, 2.73 1.57 C3.92 0.7, 6.73 0.38, 7.5 0.17 C8.28 -0.04, 7.42 0.22, 7.4 0.3 M7 -0.1 C8.46 -0.12, 10.52 0.82, 11.66 1.82 C12.79 2.82, 13.57 4.46, 13.8 5.89 C14.03 7.32, 13.78 9.14, 13.03 10.4 C12.28 11.66, 10.77 12.95, 9.3 13.45 C7.84 13.95, 5.6 13.9, 4.23 13.41 C2.86 12.91, 1.82 11.79, 1.09 10.5 C0.37 9.22, -0.39 7.2, -0.11 5.7 C0.17 4.2, 1.55 2.5, 2.78 1.51 C4.02 0.52, 6.58 -0.01, 7.31 -0.23 C8.03 -0.45, 7.12 0.08, 7.11 0.21" stroke="#1e1e1e" stroke-width="2" fill="none"></path></g><g stroke-opacity="0.5" fill-opacity="0.5" stroke-linecap="round" transform="translate(1060.4654579182577 532.8446823101642) rotate(0 54.5 99.5)"><path d="M27.25 0 C47.08 -0.21, 64.32 0.07, 81.75 0 M27.25 0 C41.45 -0.39, 56.74 0.59, 81.75 0 M81.75 0 C100.4 1.91, 110.75 7.9, 109 27.25 M81.75 0 C98.83 1.92, 110.55 7.34, 109 27.25 M109 27.25 C106.46 75.16, 108.5 126.6, 109 171.75 M109 27.25 C110.14 76.81, 110.58 125.33, 109 171.75 M109 171.75 C109.39 190.27, 99.53 197.63, 81.75 199 M109 171.75 C109.86 190.16, 99.88 201.27, 81.75 199 M81.75 199 C60.95 199.45, 42.39 197.07, 27.25 199 M81.75 199 C70.53 199.39, 57.2 197.91, 27.25 199 M27.25 199 C10.54 198.08, 0.88 191.55, 0 171.75 M27.25 199 C8.71 198.97, -1.31 190.14, 0 171.75 M0 171.75 C-1.37 124.2, -1.36 78.86, 0 27.25 M0 171.75 C-0.84 134.59, 0.41 97.61, 0 27.25 M0 27.25 C1.19 8.3, 8.86 -0.18, 27.25 0 M0 27.25 C0.71 9.01, 8.2 -0.86, 27.25 0" stroke="#1e1e1e" stroke-width="2" fill="none"></path></g><g stroke-opacity="0.5" fill-opacity="0.5" stroke-linecap="round" transform="translate(1053.4654579182577 683.2732537387358) rotate(0 8.5 22)"><path d="M4.25 0 C7.28 -0.02, 10.62 0.14, 12.75 0 M4.25 0 C7.58 -0.05, 10.87 -0.02, 12.75 0 M12.75 0 C15.83 -0.09, 17.06 1.55, 17 4.25 M12.75 0 C15.37 0.01, 17.01 1.46, 17 4.25 M17 4.25 C17.32 15.92, 17.06 28.36, 17 39.75 M17 4.25 C16.96 14.14, 16.9 24.09, 17 39.75 M17 39.75 C17.26 42.62, 15.7 43.69, 12.75 44 M17 39.75 C17.24 42.85, 15.34 43.81, 12.75 44 M12.75 44 C9.6 43.99, 6.12 43.94, 4.25 44 M12.75 44 C10.85 43.94, 9.05 43.91, 4.25 44 M4.25 44 C1.48 44.25, 0.14 42.48, 0 39.75 M4.25 44 C1.55 44.13, 0.38 42.64, 0 39.75 M0 39.75 C-0.35 31.09, 0 23.14, 0 4.25 M0 39.75 C0.16 27.23, -0.02 14.9, 0 4.25 M0 4.25 C0.12 1.33, 1.16 -0.25, 4.25 0 M0 4.25 C-0.22 1.57, 1.78 0.01, 4.25 0" stroke="#1e1e1e" stroke-width="2" fill="none"></path></g><g stroke-opacity="0.5" fill-opacity="0.5" stroke-linecap="round" transform="translate(1158.9654579182577 681.8446823101642) rotate(0 8.5 22)"><path d="M4.25 0 C5.94 -0.08, 7.83 -0.12, 12.75 0 M4.25 0 C6.92 0.02, 9.67 0.06, 12.75 0 M12.75 0 C15.64 -0.24, 17.01 1.07, 17 4.25 M12.75 0 C15.18 -0.34, 17 1.53, 17 4.25 M17 4.25 C17.31 16.68, 16.95 29.49, 17 39.75 M17 4.25 C16.86 15.97, 17.05 28.03, 17 39.75 M17 39.75 C17.01 42.67, 15.94 43.69, 12.75 44 M17 39.75 C17.24 42.38, 15.72 43.64, 12.75 44 M12.75 44 C10.92 44.04, 9.12 43.85, 4.25 44 M12.75 44 C9.92 44.02, 6.98 44, 4.25 44 M4.25 44 C1.14 44.2, 0.28 42.62, 0 39.75 M4.25 44 C1.67 43.69, -0.08 42.34, 0 39.75 M0 39.75 C-0.38 31.44, -0.33 23.11, 0 4.25 M0 39.75 C0.08 32.17, -0.05 24.92, 0 4.25 M0 4.25 C-0.26 1.29, 1.14 0.21, 4.25 0 M0 4.25 C0.17 1.65, 1.44 0.27, 4.25 0" stroke="#1e1e1e" stroke-width="2" fill="none"></path></g><g stroke-linecap="round" transform="translate(1108.4654579182577 697.8446823101642) rotate(0 6 6)"><path d="M5.86 -0.02 C7.09 -0.18, 8.78 0.42, 9.79 1.22 C10.79 2.01, 11.64 3.51, 11.89 4.75 C12.13 5.99, 11.84 7.52, 11.24 8.64 C10.64 9.76, 9.46 10.94, 8.29 11.47 C7.12 11.99, 5.45 12.14, 4.22 11.79 C3 11.45, 1.65 10.49, 0.94 9.41 C0.24 8.34, -0.14 6.65, 0 5.32 C0.14 4, 0.86 2.39, 1.79 1.48 C2.72 0.58, 4.91 0.09, 5.59 -0.12 C6.27 -0.33, 5.83 0.1, 5.86 0.23 M6.49 0.14 C7.68 0.2, 9.13 0.88, 10.04 1.8 C10.94 2.72, 11.75 4.41, 11.91 5.69 C12.07 6.97, 11.7 8.43, 10.98 9.47 C10.26 10.51, 8.88 11.57, 7.6 11.92 C6.32 12.28, 4.49 12.13, 3.29 11.57 C2.09 11.01, 0.93 9.75, 0.42 8.56 C-0.09 7.37, -0.14 5.64, 0.23 4.41 C0.59 3.19, 1.56 1.94, 2.59 1.21 C3.61 0.48, 5.78 0.24, 6.39 0.02 C7 -0.2, 6.25 -0.21, 6.24 -0.1" stroke="none" stroke-width="0" fill="#1e1e1e"></path><path d="M6.09 -0.11 C7.27 -0.15, 8.96 0.74, 9.91 1.61 C10.87 2.48, 11.64 3.83, 11.82 5.12 C12 6.41, 11.65 8.28, 10.99 9.36 C10.33 10.45, 9.06 11.28, 7.86 11.64 C6.66 12, 5 11.97, 3.78 11.51 C2.56 11.05, 1.17 10.04, 0.56 8.9 C-0.05 7.77, -0.18 6, 0.12 4.7 C0.43 3.4, 1.34 1.89, 2.37 1.12 C3.4 0.35, 5.67 0.29, 6.3 0.1 C6.94 -0.1, 6.2 -0.1, 6.19 -0.03 M5.84 0.2 C7.07 0.06, 8.58 0.62, 9.55 1.39 C10.52 2.16, 11.4 3.62, 11.68 4.83 C11.96 6.04, 11.79 7.5, 11.23 8.65 C10.68 9.79, 9.53 11.19, 8.34 11.7 C7.14 12.21, 5.24 12.11, 4.04 11.73 C2.84 11.35, 1.8 10.51, 1.15 9.41 C0.5 8.31, -0.01 6.38, 0.11 5.11 C0.23 3.83, 0.98 2.67, 1.87 1.78 C2.77 0.89, 4.87 0.08, 5.5 -0.22 C6.13 -0.52, 5.61 -0.13, 5.65 -0.02" stroke="#1e1e1e" stroke-width="2" fill="none"></path></g><g transform="translate(1299.7792534433513 247.85841429221423) rotate(0 284.765625 21.599999999999994)"><text x="0" y="0" font-family="Cascadia, Segoe UI Emoji" font-size="36px" fill="#1e1e1e" text-anchor="start" style="white-space: pre;" direction="ltr" dominant-baseline="text-before-edge">base_footprint (base_frame)</text></g><g stroke-linecap="round"><g transform="translate(1286.8357143208916 298.32245378256863) rotate(0 -25.29855636538707 197.08296619915268)"><path d="M0.04 0.22 C-8.37 65.94, -41.61 328.25, -50.07 393.8 M-1.39 -0.7 C-9.94 65.18, -42.29 329.04, -50.64 394.87" stroke="#1e1e1e" stroke-width="2" fill="none"></path></g><g transform="translate(1286.8357143208916 298.32245378256863) rotate(0 -25.29855636538707 197.08296619915268)"><path d="M-57.34 365.63 C-54.83 376.66, -54.45 385.36, -50.64 394.87 M-57.34 365.63 C-55.05 372.27, -54.77 378.51, -50.64 394.87" stroke="#1e1e1e" stroke-width="2" fill="none"></path></g><g transform="translate(1286.8357143208916 298.32245378256863) rotate(0 -25.29855636538707 197.08296619915268)"><path d="M-36.98 368.16 C-41.3 378.35, -47.77 386.2, -50.64 394.87 M-36.98 368.16 C-38.82 374.13, -42.69 379.85, -50.64 394.87" stroke="#1e1e1e" stroke-width="2" fill="none"></path></g></g><mask></mask><g stroke-linecap="round"><g transform="translate(924.9520363119384 540.8919551924548) rotate(0 91.26330855137888 78.3256339432412)"><path d="M-0.08 -1.07 C30.59 25.22, 153.39 130.28, 184.1 156.54 M-1.57 0.99 C28.93 27.51, 152.36 131.64, 183.21 157.72" stroke="#1e1e1e" stroke-width="2" fill="none"></path></g><g transform="translate(924.9520363119384 540.8919551924548) rotate(0 91.26330855137888 78.3256339432412)"><path d="M155.05 147.36 C161.91 150.77, 171.27 154.13, 183.21 157.72 M155.05 147.36 C162.12 149.89, 169.15 152.03, 183.21 157.72" stroke="#1e1e1e" stroke-width="2" fill="none"></path></g><g transform="translate(924.9520363119384 540.8919551924548) rotate(0 91.26330855137888 78.3256339432412)"><path d="M168.29 131.69 C170.89 139.95, 176.15 148.17, 183.21 157.72 M168.29 131.69 C172.1 137.99, 175.96 143.89, 183.21 157.72" stroke="#1e1e1e" stroke-width="2" fill="none"></path></g></g><mask></mask><g transform="translate(535.7480034433511 491.50164361575435) rotate(0 189.84375 43.19999999999999)"><text x="0" y="0" font-family="Cascadia, Segoe UI Emoji" font-size="36px" fill="#1e1e1e" text-anchor="start" style="white-space: pre;" direction="ltr" dominant-baseline="text-before-edge">base_control_shift</text><text x="0" y="43.199999999999996" font-family="Cascadia, Segoe UI Emoji" font-size="36px" fill="#1e1e1e" text-anchor="start" style="white-space: pre;" direction="ltr" dominant-baseline="text-before-edge">(offset_frame)</text></g><g stroke-linecap="round" transform="translate(1106.4654579182577 617.8446823101642) rotate(0 6 6)"><path d="M5.98 0.05 C7.15 -0.01, 8.76 0.5, 9.76 1.36 C10.76 2.21, 11.73 3.89, 11.97 5.17 C12.21 6.44, 11.85 7.91, 11.17 9.01 C10.5 10.1, 9.16 11.3, 7.93 11.74 C6.71 12.18, 5.04 12.11, 3.83 11.65 C2.61 11.2, 1.27 10.13, 0.64 9.03 C0.01 7.94, -0.2 6.37, 0.04 5.07 C0.28 3.78, 1.08 2.08, 2.07 1.25 C3.07 0.42, 5.3 0.25, 6 0.09 C6.7 -0.07, 6.27 0.21, 6.27 0.28 M5.88 0.21 C7.08 0.2, 8.88 0.77, 9.88 1.59 C10.89 2.41, 11.68 3.91, 11.91 5.12 C12.14 6.33, 11.95 7.74, 11.26 8.85 C10.56 9.96, 8.94 11.35, 7.74 11.77 C6.53 12.19, 5.19 11.88, 4.03 11.38 C2.87 10.88, 1.4 9.88, 0.76 8.78 C0.11 7.68, -0.09 6.04, 0.16 4.81 C0.4 3.57, 1.24 2.2, 2.22 1.38 C3.19 0.55, 5.34 0.12, 6.02 -0.12 C6.69 -0.36, 6.29 -0.2, 6.27 -0.07" stroke="none" stroke-width="0" fill="#1e1e1e"></path><path d="M6.1 0.13 C7.29 0.04, 8.85 0.59, 9.83 1.42 C10.81 2.25, 11.75 3.79, 11.97 5.09 C12.19 6.38, 11.83 8.11, 11.14 9.18 C10.46 10.25, 9.07 11.12, 7.84 11.51 C6.62 11.9, 4.96 11.93, 3.78 11.51 C2.6 11.09, 1.39 10.11, 0.75 9.01 C0.11 7.91, -0.3 6.15, -0.06 4.89 C0.18 3.63, 1.17 2.25, 2.17 1.46 C3.17 0.67, 5.27 0.39, 5.95 0.15 C6.64 -0.09, 6.27 -0.07, 6.27 0.02 M6.19 0.02 C7.39 0.04, 8.9 1.02, 9.88 1.88 C10.86 2.74, 11.82 3.93, 12.05 5.19 C12.28 6.45, 11.97 8.33, 11.26 9.44 C10.55 10.55, 9.11 11.48, 7.81 11.83 C6.52 12.18, 4.67 12.09, 3.5 11.56 C2.32 11.03, 1.31 9.78, 0.77 8.64 C0.22 7.49, -0.07 5.94, 0.21 4.69 C0.48 3.44, 1.41 1.88, 2.41 1.13 C3.42 0.37, 5.56 0.3, 6.22 0.15 C6.88 0, 6.42 0.15, 6.4 0.23" stroke="#1e1e1e" stroke-width="2" fill="none"></path></g><g stroke-linecap="round"><g transform="translate(931.8323730683634 423.25421427201815) rotate(0 86.58420603934218 94.19889349319081)"><path d="M0.5 0.22 C29.01 31.62, 142.89 157.63, 171.75 189.1 M-0.7 -0.71 C28.11 30.29, 144.88 156.03, 173.87 187.32" stroke="#1e1e1e" stroke-width="2" fill="none"></path></g><g transform="translate(931.8323730683634 423.25421427201815) rotate(0 86.58420603934218 94.19889349319081)"><path d="M147.17 173.64 C157.08 176.51, 167.25 184.49, 173.87 187.32 M147.17 173.64 C155.82 178.33, 166.73 182.68, 173.87 187.32" stroke="#1e1e1e" stroke-width="2" fill="none"></path></g><g transform="translate(931.8323730683634 423.25421427201815) rotate(0 86.58420603934218 94.19889349319081)"><path d="M162.22 159.68 C166.88 167.56, 171.72 180.48, 173.87 187.32 M162.22 159.68 C165.55 169.35, 171.16 178.62, 173.87 187.32" stroke="#1e1e1e" stroke-width="2" fill="none"></path></g></g><mask></mask><g transform="translate(738.2109482446554 374.97297233382903) rotate(0 94.921875 43.19999999999999)"><text x="0" y="0" font-family="Cascadia, Segoe UI Emoji" font-size="36px" fill="#1e1e1e" text-anchor="start" style="white-space: pre;" direction="ltr" dominant-baseline="text-before-edge">base_link</text><text x="0" y="43.199999999999996" font-family="Cascadia, Segoe UI Emoji" font-size="36px" fill="#1e1e1e" text-anchor="start" style="white-space: pre;" direction="ltr" dominant-baseline="text-before-edge"></text></g><g stroke-linecap="round" transform="translate(1129.0366141623572 1184.7027329250704) rotate(0 6 6)"><path d="M5.68 -0.02 C6.9 -0.14, 8.73 0.46, 9.75 1.22 C10.77 1.98, 11.51 3.33, 11.79 4.56 C12.06 5.79, 12 7.43, 11.4 8.6 C10.8 9.77, 9.38 11.04, 8.19 11.57 C7.01 12.1, 5.52 12.17, 4.3 11.8 C3.08 11.43, 1.56 10.43, 0.85 9.33 C0.15 8.24, -0.12 6.51, 0.08 5.23 C0.27 3.94, 1.09 2.53, 2.02 1.64 C2.95 0.74, 5.01 0.11, 5.65 -0.14 C6.29 -0.39, 5.81 0.02, 5.85 0.12 M6.12 -0.05 C7.34 -0.11, 9.08 0.58, 10.07 1.39 C11.07 2.2, 11.88 3.57, 12.1 4.83 C12.32 6.09, 12.11 7.85, 11.39 8.95 C10.67 10.06, 9 10.98, 7.78 11.44 C6.56 11.91, 5.27 12.18, 4.07 11.76 C2.87 11.35, 1.29 10.07, 0.6 8.96 C-0.08 7.85, -0.28 6.36, -0.04 5.09 C0.21 3.82, 1.07 2.17, 2.1 1.34 C3.13 0.51, 5.5 0.31, 6.14 0.1 C6.78 -0.12, 5.93 -0.04, 5.94 0.02" stroke="none" stroke-width="0" fill="#1e1e1e"></path><path d="M5.94 0.14 C7.16 0.02, 8.65 0.53, 9.62 1.29 C10.6 2.05, 11.48 3.45, 11.78 4.7 C12.08 5.94, 12.03 7.6, 11.43 8.75 C10.83 9.9, 9.41 11.12, 8.17 11.61 C6.94 12.1, 5.23 12.08, 4 11.68 C2.76 11.29, 1.45 10.3, 0.77 9.24 C0.09 8.19, -0.27 6.62, -0.08 5.34 C0.12 4.05, 0.97 2.42, 1.96 1.54 C2.95 0.66, 5.17 0.31, 5.84 0.06 C6.51 -0.2, 5.99 -0.09, 5.96 0.02 M5.7 0.03 C6.95 -0.09, 8.62 0.45, 9.66 1.19 C10.71 1.94, 11.69 3.26, 11.98 4.51 C12.27 5.76, 11.97 7.5, 11.39 8.71 C10.81 9.93, 9.72 11.29, 8.48 11.8 C7.25 12.3, 5.21 12.12, 3.96 11.73 C2.7 11.34, 1.62 10.55, 0.96 9.45 C0.29 8.36, -0.23 6.46, -0.04 5.15 C0.16 3.84, 1.15 2.45, 2.15 1.61 C3.16 0.77, 5.39 0.32, 6 0.11 C6.61 -0.1, 5.83 0.29, 5.8 0.34" stroke="#1e1e1e" stroke-width="2" fill="none"></path></g><g transform="translate(1001.6163070147797 1161.0312589657535) rotate(0 42.1875 21.600000000000023)"><text x="0" y="0" font-family="Cascadia, Segoe UI Emoji" font-size="36px" fill="#1e1e1e" text-anchor="start" style="white-space: pre;" direction="ltr" dominant-baseline="text-before-edge">odom</text></g><g stroke-linecap="round"><g transform="translate(1140.3353165490894 1176.1290942290484) rotate(0 42.66730413511357 -225.64463765148287)"><path d="M-0.95 0.6 C13.42 -74.71, 71.73 -376.68, 86.29 -451.89" stroke="#1e1e1e" stroke-width="2.5" fill="none" stroke-dasharray="1.5 8"></path></g><g transform="translate(1140.3353165490894 1176.1290942290484) rotate(0 42.66730413511357 -225.64463765148287)"><path d="M88.2 -450.39 L88.18 -438.66 L77.03 -440.02 L88.21 -450.1" stroke="none" stroke-width="0" fill="#1e1e1e" fill-rule="evenodd"></path><path d="M86.29 -451.89 C88.15 -448.56, 88.11 -443.97, 89.93 -437.34 M89.93 -437.34 C85.92 -438.18, 80.67 -440.4, 77.48 -439.74 M77.48 -439.74 C79.55 -442.78, 80.09 -445.89, 86.29 -451.89 M86.29 -451.89 C86.29 -451.89, 86.29 -451.89, 86.29 -451.89" stroke="#1e1e1e" stroke-width="2.5" fill="none"></path></g></g><mask></mask><g stroke-linecap="round"><g transform="translate(1214.3233000684554 703.9087273657569) rotate(0 -43.152344770887964 0.2042334271423556)"><path d="M0.05 -0.02 C-14.35 0.03, -71.96 0.33, -86.35 0.43" stroke="#1e1e1e" stroke-width="2.5" fill="none" stroke-dasharray="1.5 8"></path></g><g transform="translate(1214.3233000684554 703.9087273657569) rotate(0 -43.152344770887964 0.2042334271423556)"><path d="M-86.39 0.5 L-72.74 -6.03 L-72.97 6.56 L-86.28 0.51" stroke="none" stroke-width="0" fill="#1e1e1e" fill-rule="evenodd"></path><path d="M-86.35 0.43 C-81.82 -1.64, -77.26 -3.76, -72.79 -5.99 M-72.79 -5.99 C-72.86 -1.13, -72.79 3.63, -72.72 6.69 M-72.72 6.69 C-77.56 4.57, -82.1 2.09, -86.35 0.43 M-86.35 0.43 C-86.35 0.43, -86.35 0.43, -86.35 0.43" stroke="#1e1e1e" stroke-width="2.5" fill="none"></path></g></g><mask></mask><g stroke-linecap="round"><g transform="translate(1113.7573626673984 687.8459204028495) rotate(0 -0.4633433186351681 -23.342658214715755)"><path d="M-0.11 0.13 C-0.26 -7.66, -0.7 -39.01, -0.82 -46.82" stroke="#1e1e1e" stroke-width="2.5" fill="none" stroke-dasharray="1.5 8"></path></g><g transform="translate(1113.7573626673984 687.8459204028495) rotate(0 -0.4633433186351681 -23.342658214715755)"><path d="M-0.58 -47 L5.63 -33.44 L-7.24 -33.2 L-0.9 -47.11" stroke="none" stroke-width="0" fill="#1e1e1e" fill-rule="evenodd"></path><path d="M-0.82 -46.82 C1.7 -42.15, 3.68 -37.37, 5.72 -33.32 M5.72 -33.32 C2.08 -33.3, -1.51 -33.25, -6.96 -33.13 M-6.96 -33.13 C-4.98 -37.49, -3.06 -42.03, -0.82 -46.82 M-0.82 -46.82 C-0.82 -46.82, -0.82 -46.82, -0.82 -46.82" stroke="#1e1e1e" stroke-width="2.5" fill="none"></path></g></g><mask></mask><g stroke-linecap="round"><g transform="translate(2091.503864497452 1308.062964957298) rotate(0 132.3541847289939 -188.49024902752922)"><path d="M1.08 1.11 C45.19 -61.77, 220.53 -313.27, 264.53 -376.33 M0.18 0.65 C44.14 -62.67, 219.49 -315.3, 263.54 -378.09" stroke="#1e1e1e" stroke-width="2" fill="none"></path></g><g transform="translate(2091.503864497452 1308.062964957298) rotate(0 132.3541847289939 -188.49024902752922)"><path d="M255.84 -349.1 C259.68 -357.65, 261.19 -365.16, 263.54 -378.09 M255.84 -349.1 C257.43 -357.22, 261.13 -366.18, 263.54 -378.09" stroke="#1e1e1e" stroke-width="2" fill="none"></path></g><g transform="translate(2091.503864497452 1308.062964957298) rotate(0 132.3541847289939 -188.49024902752922)"><path d="M239 -360.84 C247.8 -366.15, 254.18 -370.27, 263.54 -378.09 M239 -360.84 C245.21 -365.83, 253.62 -371.51, 263.54 -378.09" stroke="#1e1e1e" stroke-width="2" fill="none"></path></g></g><mask></mask><g transform="translate(1753.0038644974522 1225.6107847494102) rotate(0 168.75 43.200000000000045)"><text x="0" y="0" font-family="Cascadia, Segoe UI Emoji" font-size="36px" fill="#1e1e1e" text-anchor="start" style="white-space: pre;" direction="ltr" dominant-baseline="text-before-edge">base_joint</text><text x="0" y="43.199999999999996" font-family="Cascadia, Segoe UI Emoji" font-size="36px" fill="#1e1e1e" text-anchor="start" style="white-space: pre;" direction="ltr" dominant-baseline="text-before-edge">type="prismatic"</text></g><g stroke-linecap="round" transform="translate(2433.0993317471693 910.2150856499934) rotate(0 18.92966787526302 18.929667875262965)"><path d="M20.53 0.29 C24.39 0.47, 29.7 3.01, 32.53 5.88 C35.37 8.75, 37.29 13.55, 37.56 17.5 C37.83 21.45, 36.51 26.29, 34.16 29.58 C31.81 32.86, 27.38 36.09, 23.46 37.19 C19.55 38.3, 14.26 37.96, 10.67 36.2 C7.07 34.44, 3.59 30.3, 1.9 26.63 C0.22 22.96, -0.48 18.09, 0.57 14.17 C1.62 10.25, 4.87 5.42, 8.22 3.1 C11.58 0.79, 18.52 0.69, 20.69 0.26 C22.87 -0.17, 21.29 0.23, 21.26 0.5 M18.14 -0.02 C21.9 -0.4, 27.26 1.28, 30.44 3.86 C33.61 6.45, 36.38 11.47, 37.21 15.49 C38.04 19.51, 37.34 24.54, 35.4 27.98 C33.46 31.42, 29.27 34.62, 25.58 36.14 C21.89 37.65, 17.05 38.27, 13.26 37.06 C9.47 35.85, 5 32.37, 2.84 28.89 C0.67 25.4, -0.42 20.15, 0.26 16.15 C0.94 12.14, 3.8 7.49, 6.9 4.85 C10.01 2.22, 16.9 1.03, 18.89 0.34 C20.89 -0.36, 18.86 0.43, 18.86 0.68" stroke="none" stroke-width="0" fill="#1e1e1e"></path><path d="M17.27 -0.09 C21.16 -0.68, 26.66 1.02, 29.97 3.39 C33.28 5.76, 36.06 10.22, 37.12 14.15 C38.18 18.08, 38.05 23.3, 36.34 26.97 C34.62 30.63, 30.57 34.47, 26.82 36.13 C23.07 37.8, 17.74 37.95, 13.85 36.93 C9.97 35.92, 5.78 33.31, 3.51 30.04 C1.23 26.77, -0.12 21.37, 0.19 17.32 C0.51 13.26, 2.5 8.58, 5.39 5.69 C8.28 2.79, 15.44 0.85, 17.54 -0.06 C19.64 -0.96, 18.01 -0.05, 17.99 0.26 M20.26 0.23 C24.09 0.15, 29.02 2.4, 31.99 5.16 C34.95 7.92, 37.63 12.7, 38.03 16.78 C38.43 20.86, 36.74 26.25, 34.39 29.64 C32.04 33.02, 27.7 35.93, 23.93 37.11 C20.17 38.28, 15.44 38.27, 11.8 36.68 C8.15 35.09, 3.97 31.2, 2.08 27.57 C0.19 23.94, -0.41 18.88, 0.46 14.91 C1.33 10.95, 4.04 6.3, 7.3 3.76 C10.55 1.22, 17.93 0.25, 19.98 -0.32 C22.04 -0.88, 19.61 0.05, 19.62 0.38" stroke="#1e1e1e" stroke-width="2" fill="none"></path></g><g stroke-opacity="0.5" fill-opacity="0.5" stroke-linecap="round" transform="translate(1995.0127323482268 466.7200097152617) rotate(0 147.3809856002615 269.0717076555233)"><path d="M32 0 C93.91 1.34, 158.3 0.23, 262.76 0 M32 0 C116.07 1.24, 199.55 0.23, 262.76 0 M262.76 0 C284.45 -1.23, 292.94 11.15, 294.76 32 M262.76 0 C285.87 0.91, 294.91 9.6, 294.76 32 M294.76 32 C295.67 193.94, 294.37 356.32, 294.76 506.14 M294.76 32 C296.06 192.08, 295.91 351.78, 294.76 506.14 M294.76 506.14 C296.03 527.72, 282.57 539.47, 262.76 538.14 M294.76 506.14 C292.64 527.7, 285.87 539.94, 262.76 538.14 M262.76 538.14 C191.55 536.74, 117.88 537.77, 32 538.14 M262.76 538.14 C211.1 537.48, 158.63 538, 32 538.14 M32 538.14 C11.85 539.22, -1.12 526.54, 0 506.14 M32 538.14 C12.18 539.25, 1.95 525.72, 0 506.14 M0 506.14 C0.69 345.63, 0.97 185.83, 0 32 M0 506.14 C1.77 337.83, 1.07 168.93, 0 32 M0 32 C0.97 11.06, 10.52 -1.38, 32 0 M0 32 C-0.87 10.34, 11.46 -0.02, 32 0" stroke="#1e1e1e" stroke-width="2" fill="none"></path></g><g stroke-opacity="0.5" fill-opacity="0.5" stroke-linecap="round" transform="translate(1976.0830644729638 873.5147091571368) rotate(0 22.986025277105 59.493241893683546)"><path d="M11.49 0 C17.11 -0.44, 23.2 -0.07, 34.48 0 M11.49 0 C17.78 -0.24, 24.01 -0.33, 34.48 0 M34.48 0 C41.38 0.2, 46.62 4.16, 45.97 11.49 M34.48 0 C42.2 -0.44, 46.38 3.96, 45.97 11.49 M45.97 11.49 C45.64 36.39, 46.57 62.56, 45.97 107.49 M45.97 11.49 C46.23 47.57, 46.43 83.7, 45.97 107.49 M45.97 107.49 C45.34 115.71, 41.37 119.07, 34.48 118.99 M45.97 107.49 C46.71 115.91, 42.28 119.27, 34.48 118.99 M34.48 118.99 C27.86 118.84, 20.56 118.24, 11.49 118.99 M34.48 118.99 C27.57 118.92, 21.26 119.15, 11.49 118.99 M11.49 118.99 C3.36 118.6, 0.55 115.56, 0 107.49 M11.49 118.99 C4.64 118.26, 0.37 114.49, 0 107.49 M0 107.49 C-0.12 88.06, 0.81 67.2, 0 11.49 M0 107.49 C-0.65 81.45, -0.09 56.2, 0 11.49 M0 11.49 C-0.06 3.26, 3.52 -0.12, 11.49 0 M0 11.49 C0.33 3.82, 3.06 -0.05, 11.49 0" stroke="#1e1e1e" stroke-width="2" fill="none"></path></g><g stroke-opacity="0.5" fill-opacity="0.5" stroke-linecap="round" transform="translate(2261.3802017358557 869.6515116315727) rotate(0 22.986025277105 59.493241893683546)"><path d="M11.49 0 C19.23 -0.01, 25.67 0.41, 34.48 0 M11.49 0 C20.27 -0.22, 28.52 0.14, 34.48 0 M34.48 0 C42.78 0.33, 46.03 3.45, 45.97 11.49 M34.48 0 C42.55 0.12, 45.63 4.52, 45.97 11.49 M45.97 11.49 C45.98 35.9, 46.3 59.86, 45.97 107.49 M45.97 11.49 C46.3 44.33, 45.71 77.35, 45.97 107.49 M45.97 107.49 C45.2 115.23, 42.78 119.64, 34.48 118.99 M45.97 107.49 C46.11 115.44, 42.04 119.69, 34.48 118.99 M34.48 118.99 C28.57 118.3, 23.85 119.2, 11.49 118.99 M34.48 118.99 C29.26 119.21, 23.31 118.79, 11.49 118.99 M11.49 118.99 C4.38 119.39, 0.71 114.52, 0 107.49 M11.49 118.99 C4.2 118.32, -0.89 114.32, 0 107.49 M0 107.49 C0.68 79.52, -0.04 53.3, 0 11.49 M0 107.49 C0.54 76.6, 0.31 45.25, 0 11.49 M0 11.49 C-0.31 3.71, 4.12 -0.01, 11.49 0 M0 11.49 C-0.77 3.78, 3.13 -0.62, 11.49 0" stroke="#1e1e1e" stroke-width="2" fill="none"></path></g><g stroke-linecap="round" transform="translate(2124.8161692071726 912.919323917888) rotate(0 16.225429607368255 16.225429607368255)"><path d="M16.82 -0.02 C20.13 0.01, 24.52 2.14, 27.12 4.48 C29.73 6.82, 32.03 10.58, 32.47 14.04 C32.91 17.5, 31.66 22.33, 29.76 25.24 C27.86 28.15, 24.4 30.5, 21.05 31.51 C17.7 32.52, 12.88 32.62, 9.68 31.3 C6.48 29.98, 3.41 26.73, 1.83 23.59 C0.26 20.46, -0.54 15.87, 0.23 12.5 C0.99 9.13, 3.57 5.49, 6.4 3.37 C9.24 1.26, 15.4 0.35, 17.23 -0.18 C19.06 -0.72, 17.42 -0.11, 17.37 0.17 M17.21 -0.33 C20.6 -0.26, 25.34 2.25, 27.87 4.75 C30.41 7.25, 32.14 11.24, 32.44 14.68 C32.75 18.12, 31.59 22.53, 29.69 25.41 C27.79 28.29, 24.35 30.98, 21.05 31.96 C17.76 32.95, 13.11 32.72, 9.92 31.32 C6.73 29.92, 3.44 26.74, 1.91 23.56 C0.39 20.37, 0.02 15.62, 0.78 12.21 C1.54 8.79, 3.73 5.12, 6.47 3.08 C9.22 1.04, 15.41 0.39, 17.23 -0.03 C19.05 -0.44, 17.45 0.37, 17.42 0.6" stroke="none" stroke-width="0" fill="#1e1e1e"></path><path d="M17.05 0.07 C20.3 0.01, 24.63 1.76, 27.19 4.17 C29.75 6.59, 31.95 11.04, 32.4 14.54 C32.85 18.04, 31.83 22.26, 29.89 25.15 C27.95 28.04, 24.11 30.9, 20.76 31.88 C17.42 32.86, 12.98 32.45, 9.84 31.03 C6.7 29.61, 3.52 26.49, 1.92 23.38 C0.32 20.27, -0.55 15.7, 0.24 12.36 C1.02 9.02, 3.74 5.38, 6.63 3.35 C9.52 1.32, 15.72 0.66, 17.56 0.17 C19.39 -0.32, 17.68 0.14, 17.63 0.42 M16.11 0.04 C19.52 -0.11, 24.46 1.99, 27.16 4.28 C29.86 6.57, 31.81 10.35, 32.3 13.78 C32.79 17.21, 31.94 21.89, 30.1 24.86 C28.26 27.82, 24.54 30.53, 21.25 31.57 C17.97 32.61, 13.65 32.33, 10.4 31.08 C7.14 29.83, 3.39 27.11, 1.72 24.09 C0.06 21.06, -0.28 16.32, 0.4 12.91 C1.08 9.5, 3.11 5.74, 5.83 3.63 C8.55 1.51, 14.98 0.8, 16.72 0.22 C18.46 -0.36, 16.26 -0.13, 16.26 0.14" stroke="#1e1e1e" stroke-width="2" fill="none"></path></g><g stroke-linecap="round" transform="translate(2128.529733476659 704.1819631573744) rotate(0 16.225429607368255 16.225429607368255)"><path d="M14.07 0.26 C17.38 -0.38, 22.25 0.52, 25.18 2.42 C28.11 4.32, 30.64 8.33, 31.65 11.65 C32.65 14.97, 32.61 19.12, 31.23 22.31 C29.86 25.5, 26.49 29.18, 23.39 30.8 C20.29 32.42, 16.04 32.84, 12.66 32.02 C9.28 31.21, 5.21 28.67, 3.1 25.91 C0.99 23.16, -0.22 18.99, -0.02 15.5 C0.19 12.01, 1.94 7.56, 4.34 4.97 C6.74 2.37, 12.7 0.7, 14.38 -0.09 C16.06 -0.88, 14.37 -0.05, 14.43 0.24 M16.32 0.18 C19.66 0, 23.89 1.57, 26.53 3.75 C29.18 5.93, 31.48 9.82, 32.19 13.24 C32.9 16.65, 32.44 21.17, 30.79 24.25 C29.15 27.32, 25.6 30.41, 22.34 31.67 C19.07 32.93, 14.5 33, 11.2 31.81 C7.91 30.61, 4.46 27.52, 2.59 24.5 C0.72 21.47, -0.51 17.09, -0.04 13.66 C0.44 10.23, 2.76 6.13, 5.44 3.9 C8.12 1.66, 14.3 0.88, 16.02 0.23 C17.74 -0.41, 15.8 -0.21, 15.74 0.02" stroke="none" stroke-width="0" fill="#1e1e1e"></path><path d="M16.42 -0.24 C19.76 -0.35, 24.34 1.9, 26.99 4.24 C29.65 6.58, 31.87 10.36, 32.37 13.78 C32.86 17.2, 31.79 21.81, 29.97 24.76 C28.15 27.72, 24.71 30.42, 21.47 31.5 C18.23 32.57, 13.81 32.48, 10.53 31.21 C7.25 29.94, 3.48 26.89, 1.8 23.89 C0.11 20.88, -0.33 16.55, 0.41 13.19 C1.16 9.82, 3.51 5.89, 6.28 3.7 C9.04 1.51, 15.19 0.58, 17.01 0.05 C18.83 -0.48, 17.22 0.29, 17.2 0.52 M17.96 0.38 C21.34 0.47, 25.37 2.43, 27.77 4.88 C30.16 7.34, 32.1 11.68, 32.35 15.12 C32.59 18.57, 31.22 22.81, 29.23 25.56 C27.23 28.3, 23.74 30.71, 20.37 31.6 C17.01 32.49, 12.15 32.36, 9.03 30.9 C5.9 29.43, 3.06 25.97, 1.62 22.82 C0.18 19.67, -0.53 15.29, 0.39 12.01 C1.32 8.73, 4.33 5.16, 7.17 3.14 C10.01 1.12, 15.64 0.3, 17.43 -0.12 C19.22 -0.55, 17.82 0.33, 17.89 0.58" stroke="#1e1e1e" stroke-width="2" fill="none"></path></g><g stroke-linecap="round"><g transform="translate(2421.5346780464906 929.2816845176835) rotate(0 -126.28807340381661 -0.7743049965314412)"><path d="M0.03 -0.06 C-42.09 -0.33, -210.47 -1.27, -252.6 -1.49" stroke="#1e1e1e" stroke-width="2.5" fill="none" stroke-dasharray="1.5 8"></path></g><g transform="translate(2421.5346780464906 929.2816845176835) rotate(0 -126.28807340381661 -0.7743049965314412)"><path d="M-252.82 -1.29 L-239.24 -7.73 L-238.82 5.15 L-252.56 -1.4" stroke="none" stroke-width="0" fill="#1e1e1e" fill-rule="evenodd"></path><path d="M-252.6 -1.49 C-248.02 -3.6, -243.39 -5.99, -238.97 -7.75 M-238.97 -7.75 C-238.97 -3.73, -238.92 0.49, -239.04 4.92 M-239.04 4.92 C-242.79 3.11, -246.12 1.64, -252.6 -1.49 M-252.6 -1.49 C-252.6 -1.49, -252.6 -1.49, -252.6 -1.49" stroke="#1e1e1e" stroke-width="2.5" fill="none"></path></g></g><mask></mask><g stroke-linecap="round"><g transform="translate(2141.8641160716797 896.157941301886) rotate(0 1.4016838902917925 -73.65366830784757)"><path d="M0.03 -0.09 C0.49 -24.62, 2.27 -122.7, 2.78 -147.21" stroke="#1e1e1e" stroke-width="2.5" fill="none" stroke-dasharray="1.5 8"></path></g><g transform="translate(2141.8641160716797 896.157941301886) rotate(0 1.4016838902917925 -73.65366830784757)"><path d="M2.5 -147.18 L9.08 -133.27 L-3.78 -133.65 L2.74 -146.99" stroke="none" stroke-width="0" fill="#1e1e1e" fill-rule="evenodd"></path><path d="M2.78 -147.21 C4.56 -143.07, 6.67 -138.35, 8.85 -133.5 M8.85 -133.5 C4.63 -133.57, 0.18 -133.54, -3.82 -133.74 M-3.82 -133.74 C-2.08 -136.99, -0.34 -140.36, 2.78 -147.21 M2.78 -147.21 C2.78 -147.21, 2.78 -147.21, 2.78 -147.21" stroke="#1e1e1e" stroke-width="2.5" fill="none"></path></g></g><mask></mask><g transform="translate(1779.8614587539814 1348.777686031487) rotate(0 284.7656249999999 21.600000000000023)"><text x="0" y="0" font-family="Cascadia, Segoe UI Emoji" font-size="36px" fill="#1e1e1e" text-anchor="start" style="white-space: pre;" direction="ltr" dominant-baseline="text-before-edge">base_footprint (base_frame)</text></g><g stroke-linecap="round"><g transform="translate(2361.490337805877 1365.1108654142952) rotate(0 41.695338919614414 -202.13553755227719)"><path d="M-0.46 -0.86 C13.55 -68.5, 69.51 -338.19, 83.85 -405.57 M1.5 1.3 C15.31 -66.19, 68.61 -336.73, 82.61 -404.25" stroke="#1e1e1e" stroke-width="2" fill="none"></path></g><g transform="translate(2361.490337805877 1365.1108654142952) rotate(0 41.695338919614414 -202.13553755227719)"><path d="M87.1 -374.59 C84.33 -383.97, 83.81 -389.46, 82.61 -404.25 M87.1 -374.59 C86.94 -384.44, 83.66 -392.57, 82.61 -404.25" stroke="#1e1e1e" stroke-width="2" fill="none"></path></g><g transform="translate(2361.490337805877 1365.1108654142952) rotate(0 41.695338919614414 -202.13553755227719)"><path d="M66.98 -378.64 C69.94 -386.79, 75.13 -391.14, 82.61 -404.25 M66.98 -378.64 C72.86 -387.32, 75.64 -394.23, 82.61 -404.25" stroke="#1e1e1e" stroke-width="2" fill="none"></path></g></g><mask></mask><g stroke-linecap="round"><g transform="translate(2098.023468890059 1103.4225082880941) rotate(0 22.919334436638565 -74.24715775579688)"><path d="M0.35 -0.19 C8.05 -24.96, 38.35 -123.78, 45.84 -148.5 M0 0.66 C7.7 -24.24, 38.18 -124.16, 45.66 -149.16" stroke="#1e1e1e" stroke-width="2" fill="none"></path></g><g transform="translate(2098.023468890059 1103.4225082880941) rotate(0 22.919334436638565 -74.24715775579688)"><path d="M47.31 -119.2 C46.56 -125.27, 46.98 -132.99, 45.66 -149.16 M47.31 -119.2 C46.53 -129.4, 46.51 -139.61, 45.66 -149.16" stroke="#1e1e1e" stroke-width="2" fill="none"></path></g><g transform="translate(2098.023468890059 1103.4225082880941) rotate(0 22.919334436638565 -74.24715775579688)"><path d="M27.67 -125.15 C31.32 -129.95, 36.12 -136.34, 45.66 -149.16 M27.67 -125.15 C33.63 -133.3, 40.36 -141.46, 45.66 -149.16" stroke="#1e1e1e" stroke-width="2" fill="none"></path></g></g><mask></mask><g transform="translate(1713.6867790529693 1109.9822100485678) rotate(0 189.84375 43.200000000000045)"><text x="0" y="0" font-family="Cascadia, Segoe UI Emoji" font-size="36px" fill="#1e1e1e" text-anchor="start" style="white-space: pre;" direction="ltr" dominant-baseline="text-before-edge">base_control_shift</text><text x="0" y="43.199999999999996" font-family="Cascadia, Segoe UI Emoji" font-size="36px" fill="#1e1e1e" text-anchor="start" style="white-space: pre;" direction="ltr" dominant-baseline="text-before-edge">(offset_frame)</text></g><g stroke-opacity="0.5" fill-opacity="0.5" stroke-linecap="round" transform="translate(1025.109528671114 497.7196920000444) rotate(0 137.97921139779476 137.00063543043444)"><path d="M0 0 C100.06 0.15, 200.7 1.3, 275.96 0 M0 0 C93.11 2.51, 187.05 2.05, 275.96 0 M275.96 0 C273.39 91.28, 272.95 182.71, 275.96 274 M275.96 0 C274.15 102.05, 274.84 205, 275.96 274 M275.96 274 C169.61 276.03, 63.59 276.51, 0 274 M275.96 274 C213.26 273.69, 150.08 274.4, 0 274 M0 274 C1.05 198.16, 0.76 123.08, 0 0 M0 274 C2.71 191.15, 2.15 108.27, 0 0" stroke="#1e1e1e" stroke-width="1" fill="none"></path></g><g stroke-opacity="0.5" fill-opacity="0.5" stroke-linecap="round" transform="translate(1867.6634365682862 372.46196817793276) rotate(0 373.8160195316142 346.4158924455272)"><path d="M0 0 C265.82 1.19, 532.42 0.8, 747.63 0 M0 0 C245.45 2.08, 490.02 2.33, 747.63 0 M747.63 0 C747.23 214.16, 746.42 429.73, 747.63 692.83 M747.63 0 C747.46 261.43, 746.93 523.37, 747.63 692.83 M747.63 692.83 C560.42 691.69, 374.14 691.06, 0 692.83 M747.63 692.83 C553.53 695.69, 360.48 695.53, 0 692.83 M0 692.83 C-0.53 474.59, -0.76 256.25, 0 0 M0 692.83 C0.9 484.59, 1.01 276.5, 0 0" stroke="#1e1e1e" stroke-width="1" fill="none"></path></g><g stroke-linecap="round"><g stroke-opacity="0.2" fill-opacity="0.2" transform="translate(1036.8524402794371 499.6768439347649) rotate(0 415.89478612810467 -60.67170997633531)"><path d="M0 0 C202.51 -28.1, 406.25 -57.94, 831.79 -121.34 M0 0 C267.62 -37.86, 535.27 -77.38, 831.79 -121.34" stroke="#1e1e1e" stroke-width="1" fill="none"></path></g></g><mask></mask><g stroke-linecap="round"><g stroke-opacity="0.2" fill-opacity="0.2" transform="translate(1032.938136409996 773.6781147956337) rotate(0 417.8519380628252 146.78639510403696)"><path d="M0 0 C260.38 92.06, 521.62 183.39, 835.7 293.57 M0 0 C276.47 93.55, 552.37 191, 835.7 293.57" stroke="#1e1e1e" stroke-width="1" fill="none"></path></g></g><mask></mask><g stroke-linecap="round" transform="translate(10 781.3460893346978) rotate(0 236 235.99999999999994)"><path d="M308.22 11.55 C327.16 13.52, 345.17 26.34, 361.59 36.63 C378.02 46.92, 393.19 59.37, 406.76 73.28 C420.33 87.19, 433.3 103.08, 443.03 120.11 C452.77 137.13, 460.2 156.25, 465.17 175.4 C470.13 194.55, 472.69 215.54, 472.82 235.02 C472.95 254.49, 470.72 273.46, 465.94 292.26 C461.16 311.06, 453.47 330.58, 444.13 347.81 C434.79 365.04, 423.26 381.13, 409.9 395.66 C396.53 410.19, 380.54 424.25, 363.92 434.99 C347.31 445.72, 328.66 453.88, 310.21 460.07 C291.76 466.25, 272.76 470.61, 253.22 472.09 C233.68 473.56, 212.49 472.46, 192.98 468.94 C173.48 465.41, 153.81 459.34, 136.18 450.95 C118.56 442.55, 102.37 431.07, 87.23 418.57 C72.08 406.08, 56.93 391.63, 45.33 375.98 C33.74 360.32, 24.81 342.83, 17.66 324.64 C10.52 306.45, 5.03 286.42, 2.46 266.84 C-0.11 247.26, 0.14 226.64, 2.24 207.16 C4.34 187.67, 8.13 168.01, 15.07 149.93 C22 131.85, 32.41 114.4, 43.84 98.7 C55.28 82.99, 68.77 68.26, 83.69 55.69 C98.61 43.11, 115.52 31.97, 133.36 23.27 C151.21 14.57, 171.25 7.43, 190.74 3.49 C210.23 -0.45, 229.93 -2.11, 250.3 -0.38 C270.67 1.35, 301.79 10.39, 312.97 13.88 C324.15 17.37, 318.61 17.01, 317.38 20.56" stroke="#1e1e1e" stroke-width="2.5" fill="none" stroke-dasharray="1.5 8"></path></g><g stroke-linecap="round" transform="translate(239 1010.3460893346978) rotate(0 7 7)"><path d="M6.98 0.05 C8.41 -0.12, 10.27 0.49, 11.41 1.44 C12.56 2.38, 13.58 4.27, 13.86 5.73 C14.13 7.19, 13.74 8.91, 13.04 10.2 C12.35 11.48, 11.07 12.89, 9.71 13.46 C8.35 14.03, 6.31 14.08, 4.89 13.61 C3.46 13.14, 1.96 11.9, 1.15 10.64 C0.34 9.39, -0.19 7.53, 0.03 6.06 C0.24 4.58, 1.27 2.82, 2.44 1.79 C3.6 0.76, 6.29 0.16, 7.04 -0.13 C7.79 -0.42, 6.95 -0.07, 6.94 0.05 M6.52 0.14 C7.99 -0.05, 10 0.52, 11.22 1.38 C12.43 2.24, 13.45 3.83, 13.82 5.29 C14.2 6.76, 14.1 8.85, 13.47 10.16 C12.83 11.47, 11.44 12.54, 10.03 13.15 C8.61 13.77, 6.47 14.21, 4.99 13.87 C3.51 13.53, 1.99 12.42, 1.14 11.11 C0.28 9.8, -0.34 7.57, -0.15 6 C0.05 4.44, 1.2 2.69, 2.29 1.71 C3.37 0.73, 5.69 0.4, 6.36 0.12 C7.03 -0.16, 6.27 -0.04, 6.31 0.03" stroke="none" stroke-width="0" fill="#1e1e1e"></path><path d="M7.63 0.15 C9.03 0.16, 10.79 1, 11.87 2 C12.96 3.01, 13.96 4.7, 14.14 6.18 C14.32 7.66, 13.79 9.62, 12.94 10.89 C12.08 12.17, 10.45 13.46, 9.01 13.84 C7.56 14.23, 5.63 13.85, 4.26 13.19 C2.89 12.54, 1.43 11.25, 0.78 9.91 C0.14 8.56, 0.01 6.52, 0.37 5.1 C0.74 3.68, 1.78 2.23, 2.98 1.39 C4.18 0.55, 6.78 0.23, 7.59 0.04 C8.39 -0.14, 7.83 0.15, 7.82 0.29 M6.5 -0.16 C7.88 -0.33, 9.93 0.57, 11.16 1.51 C12.4 2.44, 13.56 4, 13.9 5.46 C14.24 6.92, 13.92 8.98, 13.21 10.26 C12.49 11.55, 10.99 12.6, 9.6 13.16 C8.21 13.72, 6.26 14.04, 4.86 13.62 C3.47 13.21, 2 11.95, 1.22 10.68 C0.44 9.41, 0.03 7.45, 0.19 6.01 C0.36 4.57, 1.2 3.01, 2.21 2.05 C3.23 1.1, 5.6 0.63, 6.3 0.28 C6.99 -0.07, 6.28 -0.09, 6.37 -0.06" stroke="#1e1e1e" stroke-width="2" fill="none"></path></g><g stroke-linecap="round" transform="translate(77 846.3460893346978) rotate(0 54.5 99.5)"><path d="M27.25 0 C48.42 0.44, 67.5 0.91, 81.75 0 M27.25 0 C41.44 0.44, 56.95 0.3, 81.75 0 M81.75 0 C100.98 1.97, 107.07 10.27, 109 27.25 M81.75 0 C98.64 1.9, 107.18 9.53, 109 27.25 M109 27.25 C110.55 79.71, 108.21 131.25, 109 171.75 M109 27.25 C109.88 59.79, 110.15 94.12, 109 171.75 M109 171.75 C109.71 190.72, 99.44 200.13, 81.75 199 M109 171.75 C107.24 187.72, 98.53 198.21, 81.75 199 M81.75 199 C62.82 199.62, 47.91 197.34, 27.25 199 M81.75 199 C60.68 197.66, 38.91 198.16, 27.25 199 M27.25 199 C8.48 198.88, 1.9 191.81, 0 171.75 M27.25 199 C9.64 199.75, -1.04 189.89, 0 171.75 M0 171.75 C2.43 117.29, 2.04 63.67, 0 27.25 M0 171.75 C0.61 119.14, 0.3 66.62, 0 27.25 M0 27.25 C-1.44 9.39, 8.11 1.68, 27.25 0 M0 27.25 C-0.86 7.32, 7.09 0.39, 27.25 0" stroke="#1e1e1e" stroke-width="2" fill="none"></path></g><g stroke-linecap="round" transform="translate(70 995.3460893346978) rotate(0 8.5 22)"><path d="M4.25 0 C7.63 0.1, 10.84 -0.02, 12.75 0 M4.25 0 C7.58 0.05, 11.02 0.06, 12.75 0 M12.75 0 C15.22 0.22, 16.79 1.73, 17 4.25 M12.75 0 C15.24 0.08, 17.23 1.35, 17 4.25 M17 4.25 C16.95 15.54, 16.79 26.48, 17 39.75 M17 4.25 C16.99 16.73, 17.05 29.09, 17 39.75 M17 39.75 C16.91 42.8, 15.29 43.64, 12.75 44 M17 39.75 C16.74 42.43, 15.66 43.69, 12.75 44 M12.75 44 C9.8 43.85, 6.86 43.88, 4.25 44 M12.75 44 C10.93 43.95, 8.97 43.98, 4.25 44 M4.25 44 C1.78 44.36, 0.09 42.71, 0 39.75 M4.25 44 C1.22 44, 0.32 42.31, 0 39.75 M0 39.75 C0.16 31.81, 0.2 23.95, 0 4.25 M0 39.75 C0 30.29, -0.17 20.49, 0 4.25 M0 4.25 C-0.18 1.73, 1.28 -0.29, 4.25 0 M0 4.25 C-0.38 1.49, 1.42 0.2, 4.25 0" stroke="#1e1e1e" stroke-width="2" fill="none"></path></g><g stroke-linecap="round" transform="translate(175.5 995.3460893346978) rotate(0 8.5 22)"><path d="M4.25 0 C7.16 -0.02, 10.29 -0.15, 12.75 0 M4.25 0 C7.66 0.07, 10.91 0.03, 12.75 0 M12.75 0 C15.37 0.31, 16.7 1.49, 17 4.25 M12.75 0 C15.82 -0.07, 17.04 1.8, 17 4.25 M17 4.25 C16.72 17.5, 17.17 30.09, 17 39.75 M17 4.25 C17.07 12.73, 16.96 21.16, 17 39.75 M17 39.75 C16.71 42.22, 15.36 43.87, 12.75 44 M17 39.75 C17.08 42.27, 15.83 43.66, 12.75 44 M12.75 44 C10.23 43.86, 7.26 44.1, 4.25 44 M12.75 44 C10.95 43.99, 9.28 44.07, 4.25 44 M4.25 44 C1.51 44.12, -0.17 42.58, 0 39.75 M4.25 44 C1.73 43.73, -0.34 42.92, 0 39.75 M0 39.75 C0.22 30.08, -0.15 20.66, 0 4.25 M0 39.75 C-0.15 27.57, -0.1 15.49, 0 4.25 M0 4.25 C-0.14 1.13, 1.09 0.06, 4.25 0 M0 4.25 C0 1.61, 1.57 0.06, 4.25 0" stroke="#1e1e1e" stroke-width="2" fill="none"></path></g><g stroke-linecap="round" transform="translate(163.1428571428571 911.631803620412) rotate(0 7.14285714285711 41.428571428571445)"><path d="M3.57 0 C5.89 -0.3, 7.99 0.2, 10.71 0 C12.35 0.69, 13.85 1.31, 14.29 3.57 C15.48 22.87, 15.21 43.72, 14.29 79.29 C13.16 80.91, 14.67 81.59, 10.71 82.86 C8.22 82.29, 5.76 82.55, 3.57 82.86 C2.43 83.64, -1.6 81.47, 0 79.29 C-1.14 52.36, 1.64 24.52, 0 3.57 C-1.44 -0.61, 3.11 0.22, 3.57 0" stroke="none" stroke-width="0" fill="#ffffff"></path><path d="M3.57 0 C5.56 -0.1, 7.63 -0.11, 10.71 0 M3.57 0 C5.5 0.06, 7.47 -0.03, 10.71 0 M10.71 0 C13.22 -0.17, 14.56 1.3, 14.29 3.57 M10.71 0 C13.09 -0.24, 14.42 0.93, 14.29 3.57 M14.29 3.57 C13.85 19.64, 13.88 35.35, 14.29 79.29 M14.29 3.57 C14.03 21.25, 14.12 38.57, 14.29 79.29 M14.29 79.29 C14.29 81.76, 13.14 82.68, 10.71 82.86 M14.29 79.29 C14.48 81.3, 12.81 82.92, 10.71 82.86 M10.71 82.86 C8.27 82.98, 5.87 82.97, 3.57 82.86 M10.71 82.86 C8.24 82.87, 5.69 82.88, 3.57 82.86 M3.57 82.86 C1.37 83.17, 0.24 81.43, 0 79.29 M3.57 82.86 C1.44 82.97, 0.26 81.72, 0 79.29 M0 79.29 C-0.09 62.56, 0.07 45.46, 0 3.57 M0 79.29 C-0.07 61.63, -0.01 44.04, 0 3.57 M0 3.57 C0.01 0.86, 1.03 -0.27, 3.57 0 M0 3.57 C0.21 0.82, 0.97 -0.33, 3.57 0" stroke="#1e1e1e" stroke-width="2" fill="none"></path></g><g stroke-linecap="round" transform="translate(273.4999999999998 1155.417517906126) rotate(344.0546040990771 17.5 28)"><path d="M15.72 0.13 C19.23 -0.85, 24.3 1.3, 27.38 4.66 C30.46 8.01, 33.16 14.47, 34.21 20.24 C35.25 26.01, 35.1 33.83, 33.66 39.27 C32.22 44.71, 28.93 50.24, 25.55 52.88 C22.18 55.51, 17.07 56.47, 13.42 55.07 C9.77 53.68, 5.92 49.35, 3.65 44.5 C1.38 39.65, -0.39 31.95, -0.18 25.99 C0.02 20.02, 2.2 12.98, 4.88 8.69 C7.56 4.4, 14.04 1.57, 15.91 0.24 C17.78 -1.1, 16.08 0.21, 16.08 0.69 M18.15 0.26 C21.66 0.27, 26.51 3.75, 29.25 7.7 C31.98 11.64, 34.02 18.12, 34.56 23.95 C35.1 29.78, 34.49 37.51, 32.48 42.67 C30.47 47.82, 26.17 53.04, 22.49 54.88 C18.82 56.71, 13.85 56.03, 10.44 53.66 C7.02 51.3, 3.75 45.92, 2.02 40.7 C0.29 35.48, -0.73 28.18, 0.06 22.33 C0.84 16.48, 3.75 9.36, 6.72 5.61 C9.69 1.86, 15.93 0.63, 17.89 -0.18 C19.86 -1, 18.4 0.18, 18.51 0.73" stroke="none" stroke-width="0" fill="#ffffff"></path><path d="M16.68 -0.22 C20.21 -0.99, 25.04 1.73, 28.05 5.3 C31.06 8.87, 33.88 15.3, 34.74 21.18 C35.61 27.07, 34.94 35.18, 33.23 40.6 C31.52 46.02, 27.87 51.27, 24.46 53.68 C21.06 56.09, 16.42 56.71, 12.82 55.05 C9.21 53.39, 5 48.73, 2.85 43.74 C0.69 38.75, -0.55 31.12, -0.09 25.1 C0.36 19.09, 2.81 11.84, 5.57 7.66 C8.32 3.48, 14.53 1.21, 16.43 0.05 C18.34 -1.12, 16.93 0.23, 17 0.68 M18.65 -0.06 C22.29 0.06, 27.12 3.58, 29.87 7.76 C32.62 11.95, 34.81 18.98, 35.16 25.04 C35.51 31.09, 34.21 39.04, 31.97 44.1 C29.73 49.16, 25.4 53.92, 21.72 55.42 C18.04 56.93, 13.17 55.75, 9.89 53.12 C6.6 50.48, 3.49 45, 1.99 39.61 C0.49 34.22, -0.01 26.5, 0.87 20.76 C1.74 15.01, 4.16 8.52, 7.24 5.14 C10.31 1.77, 17.36 1.22, 19.32 0.5 C21.27 -0.23, 19.11 0.39, 18.98 0.79" stroke="#1e1e1e" stroke-width="2" fill="none"></path></g><g stroke-linecap="round" transform="translate(276.8976858838505 1126.0248868111887) rotate(4.332313983188478 22.661318909574995 37.81376782171185)"><path d="M21.62 0.02 C26.15 -0.86, 32.2 2.82, 36.08 7.68 C39.96 12.54, 43.69 21.36, 44.89 29.17 C46.09 36.97, 45.5 47.31, 43.3 54.5 C41.1 61.7, 36.16 69.11, 31.69 72.34 C27.23 75.57, 21.21 76.24, 16.5 73.89 C11.78 71.53, 6.13 64.98, 3.41 58.24 C0.7 51.49, -0.42 41.38, 0.22 33.42 C0.87 25.46, 3.67 16.01, 7.3 10.45 C10.92 4.89, 19.45 1.63, 21.98 0.06 C24.51 -1.51, 22.44 0.36, 22.46 1.03 M18.38 1.11 C22.82 -0.93, 29.07 0.48, 33.37 4.29 C37.67 8.1, 42.48 16.24, 44.2 23.96 C45.91 31.68, 45.42 42.93, 43.67 50.62 C41.92 58.3, 37.8 66.05, 33.69 70.08 C29.58 74.12, 23.81 75.99, 19.02 74.81 C14.23 73.63, 8.14 69.14, 4.94 63 C1.74 56.86, -0.13 46.22, -0.19 37.97 C-0.24 29.72, 1.43 19.7, 4.61 13.51 C7.78 7.32, 16.45 2.79, 18.85 0.85 C21.26 -1.1, 19.09 1.28, 19.04 1.83" stroke="none" stroke-width="0" fill="#ffffff"></path><path d="M25.34 -0.01 C29.95 0.35, 36.01 5.39, 39.35 11.31 C42.68 17.23, 45.09 27.37, 45.35 35.51 C45.61 43.65, 43.71 53.62, 40.89 60.17 C38.07 66.72, 33.16 72.81, 28.44 74.8 C23.71 76.78, 17.02 75.66, 12.55 72.09 C8.09 68.52, 3.56 60.88, 1.65 53.4 C-0.26 45.92, -0.26 35.02, 1.09 27.19 C2.45 19.36, 5.64 10.86, 9.79 6.42 C13.94 1.97, 23.21 1.38, 26.01 0.51 C28.81 -0.36, 26.62 0.64, 26.57 1.19 M18.43 0.27 C23.02 -1.73, 29.72 0.21, 33.96 4.24 C38.21 8.28, 42.31 16.75, 43.9 24.5 C45.49 32.24, 45.17 43.15, 43.5 50.69 C41.83 58.23, 37.88 65.74, 33.9 69.72 C29.91 73.71, 24.22 75.83, 19.57 74.61 C14.92 73.39, 9.3 68.43, 6 62.4 C2.71 56.38, -0.11 46.44, -0.18 38.48 C-0.24 30.52, 2.51 20.89, 5.61 14.63 C8.72 8.36, 16.37 3.1, 18.46 0.9 C20.54 -1.3, 18 0.92, 18.12 1.44" stroke="#1e1e1e" stroke-width="2" fill="none"></path></g><g stroke-linecap="round" transform="translate(335.60428897157817 1025.5594617488475) rotate(4.332313983188478 33.39571102842135 22.35805615727861)"><path d="M32.29 0.2 C39.06 -0.21, 48.57 1.99, 54.27 4.88 C59.97 7.77, 65.05 12.89, 66.48 17.54 C67.91 22.19, 66.26 28.53, 62.86 32.77 C59.46 37.01, 52.78 41.24, 46.08 42.98 C39.37 44.73, 29.44 44.72, 22.61 43.24 C15.77 41.76, 8.73 38.11, 5.05 34.11 C1.37 30.11, -0.5 24.01, 0.53 19.27 C1.56 14.54, 5.77 8.87, 11.24 5.7 C16.71 2.54, 29.48 1.09, 33.35 0.26 C37.22 -0.56, 34.52 0.42, 34.47 0.74 M36.5 -0.45 C43.38 -0.42, 52.77 2.71, 57.75 6.29 C62.73 9.88, 66 16.22, 66.36 21.04 C66.71 25.87, 64.05 31.45, 59.91 35.24 C55.77 39.02, 48.46 42.46, 41.51 43.76 C34.57 45.05, 24.71 45.1, 18.24 43.01 C11.77 40.92, 5.6 35.73, 2.69 31.21 C-0.22 26.69, -1.3 20.42, 0.77 15.89 C2.83 11.36, 8.99 6.57, 15.09 4.01 C21.18 1.46, 33.79 1.17, 37.36 0.55 C40.92 -0.06, 36.7 0.09, 36.47 0.33" stroke="none" stroke-width="0" fill="#ffffff"></path><path d="M27.39 0.09 C33.96 -0.98, 43.51 0.64, 49.7 3.03 C55.89 5.42, 61.92 9.92, 64.52 14.41 C67.13 18.89, 67.66 25.34, 65.31 29.92 C62.97 34.5, 56.69 39.4, 50.45 41.87 C44.21 44.34, 34.87 45.57, 27.85 44.74 C20.84 43.92, 13.04 40.58, 8.36 36.91 C3.68 33.25, -0.13 27.49, -0.25 22.74 C-0.36 17.99, 2.84 12.18, 7.68 8.41 C12.51 4.64, 24.96 1.5, 28.76 0.14 C32.55 -1.22, 30.44 -0.1, 30.43 0.25 M31.46 -0.41 C38.21 -0.89, 47.54 1.56, 53.17 4.56 C58.8 7.56, 63.61 13.06, 65.23 17.58 C66.86 22.11, 65.92 27.62, 62.93 31.73 C59.95 35.84, 53.73 40.28, 47.34 42.26 C40.94 44.24, 31.52 44.84, 24.54 43.59 C17.57 42.35, 9.46 38.63, 5.49 34.79 C1.53 30.94, -0.06 25.26, 0.75 20.54 C1.57 15.81, 5.37 9.85, 10.39 6.44 C15.41 3.02, 27.33 1.1, 30.86 0.05 C34.4 -1.01, 31.61 -0.32, 31.61 0.13" stroke="#1e1e1e" stroke-width="2" fill="none"></path></g><g stroke-linecap="round" transform="translate(274.70184298266486 1087.6263597424406) rotate(4.332313983188478 25.456340080562406 28.30314172908163)"><path d="M24.67 0.2 C30.04 -0.64, 37.54 1.49, 41.84 5.06 C46.13 8.62, 49.25 15.6, 50.44 21.57 C51.62 27.54, 51.58 35.56, 48.93 40.89 C46.28 46.22, 39.68 51.13, 34.53 53.54 C29.39 55.95, 23.08 56.94, 18.08 55.34 C13.07 53.75, 7.45 49.06, 4.5 43.97 C1.54 38.89, -0.25 30.79, 0.35 24.83 C0.95 18.87, 3.23 12.16, 8.09 8.19 C12.96 4.22, 25.39 2.06, 29.54 1.02 C33.69 -0.03, 33.02 1.61, 33 1.93 M35.72 0.65 C40.67 2.8, 44.76 10.07, 47 15.53 C49.23 20.98, 50.07 27.7, 49.12 33.41 C48.18 39.12, 45.63 45.7, 41.34 49.8 C37.05 53.9, 28.94 58.19, 23.38 58.02 C17.83 57.86, 12.09 53.22, 8.01 48.81 C3.93 44.41, -0.54 37.42, -1.09 31.59 C-1.64 25.77, 1.41 18.73, 4.7 13.88 C7.99 9.03, 13.77 4.57, 18.65 2.5 C23.53 0.42, 31.55 1.55, 33.99 1.43 C36.42 1.3, 33.08 1.28, 33.27 1.74" stroke="none" stroke-width="0" fill="#ffffff"></path><path d="M18.67 1.62 C23.4 -0.16, 30.6 0.06, 35.69 2.56 C40.79 5.05, 46.88 11.01, 49.24 16.59 C51.61 22.17, 51.46 30.13, 49.86 36.04 C48.27 41.94, 43.97 48.62, 39.68 52 C35.39 55.38, 29.55 56.86, 24.12 56.3 C18.7 55.75, 11.02 52.79, 7.11 48.67 C3.2 44.54, 1.05 37.65, 0.66 31.57 C0.28 25.49, 1.21 17.53, 4.78 12.2 C8.35 6.86, 18.92 1.62, 22.06 -0.42 C25.2 -2.46, 23.71 -0.65, 23.63 -0.02 M16.78 2.46 C21.14 0.55, 27.57 1.4, 32.49 3.12 C37.4 4.83, 43.07 8.01, 46.26 12.76 C49.45 17.51, 52.15 25.54, 51.62 31.61 C51.08 37.69, 47.44 45.06, 43.04 49.21 C38.64 53.36, 30.61 56.12, 25.22 56.51 C19.83 56.9, 14.76 55.32, 10.69 51.56 C6.61 47.8, 2.13 40.15, 0.79 33.94 C-0.56 27.74, -0.18 19.86, 2.62 14.35 C5.43 8.83, 15.49 2.67, 17.64 0.86 C19.8 -0.95, 15.66 2.73, 15.56 3.47" stroke="#1e1e1e" stroke-width="2" fill="none"></path></g><g stroke-linecap="round" transform="translate(421.4999999999998 1049.4175179061262) rotate(0 17.5 19.5)"><path d="M18.96 -0.16 C22.51 -0.17, 26.97 2.39, 29.67 5.3 C32.37 8.22, 34.78 13.18, 35.14 17.31 C35.5 21.45, 33.93 26.63, 31.81 30.12 C29.69 33.61, 25.95 37.02, 22.41 38.24 C18.87 39.45, 13.98 39.12, 10.55 37.43 C7.12 35.75, 3.51 31.85, 1.83 28.12 C0.15 24.38, -0.42 19.04, 0.49 15.02 C1.39 10.99, 4.24 6.46, 7.27 3.95 C10.3 1.45, 16.65 0.57, 18.65 -0.02 C20.65 -0.61, 19.21 0.11, 19.26 0.42 M14.84 0.35 C18.25 -0.41, 23.22 0.63, 26.45 2.79 C29.67 4.95, 33.05 9.22, 34.2 13.3 C35.35 17.38, 34.79 23.37, 33.35 27.25 C31.91 31.13, 28.87 34.72, 25.55 36.57 C22.23 38.42, 17.04 39.18, 13.44 38.36 C9.84 37.53, 6.12 34.83, 3.94 31.61 C1.75 28.4, 0.28 23.32, 0.34 19.09 C0.39 14.86, 1.86 9.44, 4.25 6.25 C6.64 3.06, 12.81 0.92, 14.69 -0.05 C16.56 -1.02, 15.39 0.08, 15.49 0.44" stroke="none" stroke-width="0" fill="#ffffff"></path><path d="M15.49 0.15 C19.03 -0.54, 24.3 1.09, 27.42 3.43 C30.54 5.78, 33.22 10.2, 34.2 14.21 C35.19 18.23, 34.8 23.73, 33.34 27.51 C31.88 31.29, 28.79 35.06, 25.44 36.89 C22.08 38.72, 16.87 39.42, 13.22 38.47 C9.58 37.52, 5.76 34.56, 3.58 31.19 C1.4 27.82, -0.08 22.45, 0.15 18.23 C0.38 14, 2.41 8.9, 4.98 5.85 C7.54 2.8, 13.68 0.81, 15.52 -0.08 C17.35 -0.97, 15.94 0.13, 15.98 0.51 M15.12 0.55 C18.57 -0.23, 23.61 0.74, 26.86 2.92 C30.1 5.09, 33.42 9.56, 34.59 13.6 C35.75 17.63, 35.41 23.24, 33.84 27.13 C32.27 31.02, 28.5 34.98, 25.16 36.94 C21.81 38.89, 17.4 39.81, 13.8 38.86 C10.19 37.91, 5.85 34.65, 3.52 31.21 C1.19 27.78, -0.43 22.51, -0.16 18.28 C0.11 14.04, 2.58 8.76, 5.14 5.79 C7.7 2.82, 13.49 1.29, 15.21 0.45 C16.93 -0.39, 15.38 0.44, 15.46 0.75" stroke="#1e1e1e" stroke-width="2" fill="none"></path></g><g stroke-linecap="round" transform="translate(416.8110502213599 1068.9657845524976) rotate(26.095424157388322 11.188949778639767 18.451733353628583)"><path d="M11.41 -0.1 C13.69 -0.26, 16.93 1.87, 18.7 4.44 C20.48 7.02, 21.73 11.46, 22.08 15.38 C22.43 19.3, 22.01 24.52, 20.82 27.95 C19.62 31.39, 17.2 34.68, 14.93 35.97 C12.66 37.26, 9.47 37.1, 7.21 35.7 C4.96 34.29, 2.54 30.98, 1.39 27.54 C0.23 24.11, -0.16 19, 0.27 15.08 C0.7 11.17, 2.06 6.58, 3.95 4.06 C5.85 1.54, 10.32 0.6, 11.62 -0.03 C12.93 -0.67, 11.85 -0.09, 11.79 0.24 M9.85 -0.06 C12.14 -0.7, 15.58 0.77, 17.56 3.08 C19.53 5.4, 21.09 10, 21.71 13.82 C22.32 17.63, 22.27 22.45, 21.27 25.98 C20.28 29.5, 17.84 33.21, 15.73 34.95 C13.61 36.69, 10.81 37.35, 8.57 36.42 C6.34 35.5, 3.78 32.66, 2.32 29.4 C0.86 26.14, -0.26 20.89, -0.16 16.88 C-0.07 12.88, 1.15 8.17, 2.9 5.35 C4.65 2.54, 9.16 0.81, 10.37 -0.01 C11.57 -0.83, 10.17 0.14, 10.13 0.42" stroke="none" stroke-width="0" fill="#ffffff"></path><path d="M12.01 0.17 C14.29 0.17, 17.11 2.48, 18.8 5.19 C20.49 7.9, 21.84 12.56, 22.15 16.44 C22.46 20.33, 21.96 25.24, 20.65 28.52 C19.34 31.8, 16.57 34.97, 14.28 36.13 C11.99 37.29, 9.05 37.05, 6.88 35.48 C4.72 33.91, 2.36 30.28, 1.28 26.71 C0.2 23.14, -0.09 17.92, 0.42 14.06 C0.92 10.2, 2.39 5.87, 4.29 3.54 C6.2 1.21, 10.58 0.58, 11.83 0.08 C13.09 -0.42, 11.85 0.23, 11.82 0.53 M11.48 -0.23 C13.85 -0.39, 17.16 1.9, 19 4.6 C20.84 7.3, 22.26 12.01, 22.51 15.98 C22.76 19.94, 21.79 25, 20.51 28.4 C19.23 31.8, 17.08 35.17, 14.82 36.37 C12.56 37.56, 9.23 37.15, 6.95 35.58 C4.66 34, 2.18 30.48, 1.1 26.91 C0.03 23.35, -0.01 18.02, 0.5 14.2 C1.01 10.39, 2.31 6.35, 4.16 4.02 C6.02 1.68, 10.38 0.77, 11.62 0.2 C12.87 -0.37, 11.66 0.34, 11.66 0.6" stroke="#1e1e1e" stroke-width="2" fill="none"></path></g><g stroke-linecap="round" transform="translate(321.9999999999998 1000.9175179061262) rotate(0 11 9.5)"><path d="M15 2.5 C15.87 3.61, 16.88 4.79, 19 7.5 M15 2.5 C16.14 3.89, 17.17 5.18, 19 7.5 M19 7.5 C22.01 10.21, 22.14 10.16, 19 12.5 M19 7.5 C21.89 10.25, 21.65 9.57, 19 12.5 M19 12.5 C17.96 13.52, 16.99 14.44, 15 16.5 M19 12.5 C17.57 13.84, 16.27 15.22, 15 16.5 M15 16.5 C12.28 18.84, 11.88 18.98, 9 16.5 M15 16.5 C12.43 19.43, 12.11 19.15, 9 16.5 M9 16.5 C7.38 15.38, 6.05 14.43, 3 12.5 M9 16.5 C6.85 15.06, 4.75 13.68, 3 12.5 M3 12.5 C0.06 10.38, -0.28 10.06, 3 7.5 M3 12.5 C-0.22 10.38, -0.17 9.65, 3 7.5 M3 7.5 C4.35 6.49, 5.58 5.38, 9 2.5 M3 7.5 C4.8 5.97, 6.47 4.62, 9 2.5 M9 2.5 C11.92 0.3, 11.73 -0.38, 15 2.5 M9 2.5 C12.24 -0.41, 11.73 0.18, 15 2.5" stroke="#1e1e1e" stroke-width="2" fill="none"></path></g><g stroke-linecap="round" transform="translate(257.9999999999998 1040.9175179061262) rotate(0 71.5 34.5)"><path d="M94.08 1.63 C105.14 2.81, 118.07 7.47, 126.14 11.75 C134.21 16.04, 140.5 21.56, 142.49 27.33 C144.48 33.1, 142.26 40.92, 138.07 46.36 C133.88 51.81, 126.12 56.48, 117.32 60.01 C108.53 63.54, 96.94 66.36, 85.31 67.55 C73.69 68.75, 58.95 69.08, 47.55 67.19 C36.14 65.3, 24.44 60.63, 16.89 56.21 C9.34 51.79, 4.44 46.32, 2.23 40.66 C0.01 35.01, -0.09 27.55, 3.58 22.27 C7.26 16.99, 15.13 12.46, 24.27 8.98 C33.41 5.49, 45.38 2.43, 58.41 1.37 C71.44 0.31, 94.35 2.09, 102.45 2.61 C110.55 3.13, 107.73 3.74, 107.01 4.5 M60.11 -0.73 C71.35 -2.13, 87.56 -0.29, 98.56 1.77 C109.56 3.84, 118.84 7.22, 126.11 11.67 C133.38 16.12, 140.01 22.36, 142.19 28.47 C144.36 34.58, 143.69 42.89, 139.14 48.33 C134.6 53.76, 124.56 57.71, 114.91 61.1 C105.25 64.49, 92.6 67.7, 81.21 68.65 C69.81 69.61, 57.36 68.78, 46.54 66.84 C35.71 64.9, 23.77 61.68, 16.26 57 C8.75 52.32, 3.45 44.38, 1.5 38.77 C-0.46 33.15, 0.4 28.59, 4.51 23.31 C8.62 18.04, 16.96 11.06, 26.16 7.13 C35.36 3.2, 53.85 0.52, 59.73 -0.28 C65.61 -1.08, 61.27 1.7, 61.43 2.31" stroke="none" stroke-width="0" fill="#ffffff"></path><path d="M93.69 2.59 C104.88 3.69, 117.8 7.29, 125.68 11.49 C133.57 15.68, 138.63 22.03, 140.98 27.76 C143.32 33.5, 143.41 40.5, 139.76 45.91 C136.12 51.31, 128.06 56.56, 119.11 60.17 C110.17 63.78, 98.01 66.49, 86.1 67.56 C74.19 68.63, 59.09 68.26, 47.65 66.58 C36.21 64.9, 25.29 61.59, 17.46 57.47 C9.63 53.34, 3.09 47.47, 0.68 41.83 C-1.74 36.19, -1.03 29.31, 2.98 23.61 C6.99 17.9, 15.49 11.56, 24.74 7.61 C33.98 3.66, 45.01 0.34, 58.46 -0.08 C71.91 -0.51, 96 3.52, 105.44 5.05 C114.89 6.58, 115.63 8.76, 115.11 9.1 M69.64 0.51 C80.58 -0.4, 94.01 1.6, 104.63 4.09 C115.25 6.57, 127.18 10.32, 133.38 15.4 C139.57 20.48, 141.68 28.54, 141.8 34.58 C141.91 40.63, 139.55 46.63, 134.07 51.67 C128.59 56.71, 119.01 62.02, 108.93 64.84 C98.85 67.65, 85.33 68.44, 73.58 68.56 C61.82 68.68, 48.83 67.96, 38.4 65.56 C27.96 63.15, 17.54 59.09, 10.96 54.13 C4.39 49.17, -0.51 41.58, -1.04 35.8 C-1.57 30.02, 2.05 24.74, 7.77 19.45 C13.49 14.15, 23.25 7.22, 33.28 4.02 C43.32 0.83, 61.97 0.71, 67.98 0.27 C73.99 -0.17, 69 0.81, 69.34 1.38" stroke="#1e1e1e" stroke-width="2" fill="none"></path></g><g stroke-linecap="round" transform="translate(290.9999999999998 1013.9175179061262) rotate(0 42 41.5)"><path d="M44.36 0.75 C51.43 0.36, 59.29 3.25, 65.49 7.44 C71.69 11.64, 78.46 19.05, 81.54 25.93 C84.63 32.81, 85.68 41.25, 83.99 48.71 C82.3 56.18, 76.91 65.28, 71.4 70.71 C65.89 76.13, 58.07 79.71, 50.94 81.24 C43.8 82.77, 35.68 82.21, 28.61 79.87 C21.53 77.53, 13.31 73.1, 8.49 67.22 C3.67 61.33, 0.16 52.07, -0.32 44.55 C-0.79 37.04, 2.15 28.78, 5.65 22.13 C9.14 15.47, 13.33 8.1, 20.66 4.64 C27.98 1.18, 43.69 1.48, 49.58 1.36 C55.46 1.23, 55.9 3.4, 55.97 3.88 M34.82 0.37 C41.98 -1.5, 50.38 0.08, 57.18 2.67 C63.97 5.27, 70.92 9.95, 75.59 15.92 C80.26 21.9, 84.9 31.08, 85.22 38.54 C85.55 46, 81.47 54.19, 77.55 60.68 C73.62 67.17, 68.04 73.55, 61.68 77.48 C55.33 81.4, 47.19 84.8, 39.4 84.24 C31.61 83.69, 21.3 78.91, 14.92 74.13 C8.55 69.35, 3.31 62.53, 1.14 55.56 C-1.04 48.59, -0.11 39.46, 1.89 32.31 C3.89 25.15, 7.72 18.04, 13.12 12.62 C18.51 7.2, 30.86 1.4, 34.25 -0.22 C37.64 -1.84, 33.53 2.13, 33.48 2.9" stroke="none" stroke-width="0" fill="#ffffff"></path><path d="M59.56 3.35 C66.38 5.59, 72.31 12.41, 76.48 18.76 C80.64 25.11, 84.28 34.02, 84.53 41.45 C84.77 48.88, 81.98 57.21, 77.96 63.35 C73.93 69.5, 67.47 75.2, 60.39 78.31 C53.31 81.43, 43.13 82.86, 35.48 82.03 C27.82 81.2, 20.19 77.96, 14.47 73.32 C8.74 68.67, 3.38 61.3, 1.1 54.14 C-1.17 46.98, -1.45 37.81, 0.8 30.36 C3.06 22.9, 8.67 14.53, 14.63 9.42 C20.6 4.32, 28.65 0.24, 36.61 -0.27 C44.57 -0.78, 57.56 4.73, 62.39 6.37 C67.23 8.01, 65.92 9.12, 65.63 9.55 M41.06 0.51 C47.88 -0.53, 56.31 2.28, 62.92 5.89 C69.53 9.5, 77.46 15.27, 80.74 22.17 C84.01 29.06, 83.67 39.55, 82.57 47.28 C81.47 55.01, 78.77 62.77, 74.15 68.55 C69.53 74.33, 62 79.83, 54.85 81.94 C47.71 84.06, 38.45 83.18, 31.28 81.24 C24.11 79.3, 16.9 75.48, 11.84 70.3 C6.77 65.11, 2.49 57.57, 0.88 50.14 C-0.73 42.7, -0.57 32.6, 2.2 25.67 C4.96 18.74, 11.16 13.03, 17.48 8.56 C23.8 4.1, 36.48 0.11, 40.14 -1.13 C43.79 -2.37, 39.31 0.11, 39.42 1.1" stroke="#1e1e1e" stroke-width="2" fill="none"></path></g><g stroke-linecap="round" transform="translate(180.99999999999977 1031.9175179061262) rotate(26.916554616951345 45.5 14.5)"><path d="M47.46 0.18 C55.95 0.12, 66.95 1.59, 73.89 3.32 C80.84 5.05, 86.73 7.85, 89.12 10.55 C91.51 13.26, 91.3 16.88, 88.25 19.53 C85.2 22.17, 78.3 24.82, 70.81 26.42 C63.31 28.02, 52.26 29.24, 43.29 29.12 C34.31 29, 23.88 27.53, 16.96 25.7 C10.04 23.88, 4.12 20.88, 1.75 18.17 C-0.61 15.47, -0.32 12.11, 2.77 9.45 C5.85 6.79, 12.68 3.79, 20.26 2.2 C27.84 0.62, 43.55 0.3, 48.24 -0.05 C52.93 -0.4, 48.48 -0.17, 48.38 0.1 M47.12 -0.14 C55.5 -0.3, 66.28 1.16, 73.36 2.93 C80.44 4.69, 87.14 7.71, 89.6 10.47 C92.07 13.23, 91.32 16.87, 88.16 19.5 C85 22.14, 78 24.73, 70.64 26.29 C63.27 27.85, 52.9 28.97, 43.97 28.86 C35.03 28.74, 24.07 27.35, 17.03 25.59 C9.98 23.82, 4.03 20.88, 1.7 18.24 C-0.63 15.61, 0.03 12.45, 3.07 9.8 C6.1 7.16, 12.59 4, 19.92 2.37 C27.24 0.74, 42.43 0.37, 47.03 0.03 C51.63 -0.31, 47.47 0.07, 47.51 0.34" stroke="none" stroke-width="0" fill="#ffffff"></path><path d="M49.61 0.07 C58.1 0.16, 68.97 1.84, 75.7 3.71 C82.44 5.57, 88.05 8.55, 90 11.27 C91.95 14, 91 17.47, 87.4 20.07 C83.81 22.66, 76.15 25.34, 68.45 26.83 C60.74 28.32, 50.02 29.2, 41.16 28.98 C32.29 28.76, 21.96 27.4, 15.25 25.52 C8.54 23.64, 2.81 20.54, 0.91 17.71 C-0.99 14.87, 0.23 11.15, 3.84 8.51 C7.45 5.86, 14.87 3.22, 22.56 1.84 C30.25 0.46, 45.37 0.46, 49.98 0.25 C54.6 0.03, 50.33 0.35, 50.27 0.55 M45.24 0.12 C53.62 -0.15, 64.52 1.11, 71.8 2.7 C79.08 4.3, 86.13 6.95, 88.93 9.69 C91.73 12.43, 91.35 16.38, 88.59 19.16 C85.84 21.94, 79.55 24.69, 72.42 26.38 C65.28 28.06, 54.69 29.28, 45.79 29.25 C36.89 29.21, 26.21 27.86, 19 26.19 C11.79 24.52, 5.31 21.86, 2.51 19.25 C-0.3 16.63, -0.44 13.21, 2.18 10.48 C4.8 7.75, 11.08 4.58, 18.22 2.89 C25.35 1.19, 40.51 0.79, 44.98 0.31 C49.45 -0.17, 45.04 -0.19, 45.03 0.01" stroke="#1e1e1e" stroke-width="2" fill="none"></path></g><g stroke-linecap="round" transform="translate(391.4438822339048 1054.9473675168977) rotate(318.75172907052604 15.056117766095099 26.470150389228706)"><path d="M15.11 0.02 C18.16 -0.29, 22.25 2.71, 24.73 6.38 C27.2 10.06, 29.44 16.54, 29.96 22.09 C30.49 27.63, 29.46 34.8, 27.86 39.67 C26.25 44.54, 23.28 49.39, 20.32 51.31 C17.36 53.22, 13.17 53.08, 10.08 51.16 C6.99 49.24, 3.45 44.72, 1.77 39.81 C0.09 34.9, -0.62 27.33, 0 21.69 C0.62 16.05, 2.98 9.57, 5.49 5.96 C8.01 2.35, 13.48 0.97, 15.1 0.03 C16.72 -0.91, 15.17 -0.1, 15.22 0.32 M14.55 0.16 C17.7 -0.37, 21.95 2.28, 24.45 5.66 C26.94 9.05, 28.9 15.01, 29.5 20.46 C30.11 25.92, 29.47 33.32, 28.08 38.37 C26.69 43.42, 24.1 48.54, 21.19 50.76 C18.27 52.98, 13.74 53.43, 10.59 51.72 C7.45 50.01, 4 45.3, 2.31 40.51 C0.62 35.73, 0.07 28.63, 0.44 23.01 C0.82 17.38, 2.25 10.6, 4.57 6.74 C6.88 2.89, 12.67 0.83, 14.34 -0.15 C16.01 -1.12, 14.63 0.45, 14.58 0.91" stroke="none" stroke-width="0" fill="#ffffff"></path><path d="M14.75 0.1 C17.85 -0.41, 21.96 2.18, 24.5 5.65 C27.03 9.12, 29.35 15.39, 29.94 20.92 C30.54 26.46, 29.64 33.85, 28.07 38.88 C26.5 43.91, 23.52 48.97, 20.53 51.12 C17.54 53.26, 13.22 53.52, 10.14 51.74 C7.06 49.95, 3.69 45.3, 2.05 40.41 C0.4 35.52, -0.27 28.04, 0.27 22.39 C0.81 16.74, 2.89 10.21, 5.3 6.51 C7.7 2.81, 13.08 1.15, 14.68 0.18 C16.28 -0.79, 14.89 0.31, 14.91 0.71 M15.03 0.12 C18 -0.32, 21.96 2.51, 24.47 6.06 C26.99 9.61, 29.57 15.81, 30.14 21.44 C30.7 27.06, 29.51 34.81, 27.86 39.82 C26.21 44.82, 23.19 49.51, 20.21 51.49 C17.22 53.46, 12.99 53.62, 9.96 51.67 C6.93 49.71, 3.64 44.68, 2.04 39.78 C0.44 34.87, -0.17 27.76, 0.39 22.24 C0.94 16.73, 2.97 10.39, 5.35 6.69 C7.73 2.99, 13.1 1.03, 14.67 0.06 C16.24 -0.92, 14.74 0.46, 14.76 0.85" stroke="#1e1e1e" stroke-width="2" fill="none"></path></g><g stroke-linecap="round" transform="translate(142.49999999999955 981.4175179061262) rotate(77.61924307119276 45.5 14.5)"><path d="M48.99 -0.02 C57.49 -0.03, 68.46 1.62, 75.29 3.46 C82.12 5.29, 87.97 8.2, 89.96 10.99 C91.95 13.78, 90.75 17.6, 87.25 20.22 C83.74 22.84, 76.49 25.32, 68.93 26.74 C61.37 28.16, 50.75 28.95, 41.88 28.75 C33.02 28.55, 22.53 27.37, 15.73 25.52 C8.93 23.67, 3.1 20.42, 1.1 17.64 C-0.89 14.85, 0.31 11.46, 3.75 8.83 C7.19 6.21, 14.12 3.33, 21.75 1.89 C29.39 0.46, 44.83 0.43, 49.56 0.2 C54.29 -0.02, 50.16 0.36, 50.14 0.55 M43.56 -0.1 C52.05 -0.4, 63.01 0.8, 70.4 2.33 C77.8 3.86, 84.72 6.43, 87.94 9.07 C91.16 11.71, 92.09 15.43, 89.73 18.17 C87.36 20.91, 80.76 23.74, 73.76 25.51 C66.76 27.28, 56.56 28.57, 47.74 28.81 C38.92 29.05, 28.35 28.51, 20.82 26.97 C13.3 25.44, 5.87 22.3, 2.61 19.59 C-0.65 16.88, -1.16 13.44, 1.27 10.72 C3.7 7.99, 10.16 4.99, 17.18 3.24 C24.2 1.49, 38.99 0.76, 43.37 0.22 C47.75 -0.31, 43.46 -0.21, 43.47 0.05" stroke="none" stroke-width="0" fill="#ffffff"></path><path d="M45.81 -0.06 C54.28 -0.29, 65.42 0.96, 72.55 2.62 C79.68 4.29, 85.93 7.19, 88.61 9.94 C91.28 12.68, 91.41 16.34, 88.62 19.09 C85.84 21.83, 79.15 24.75, 71.9 26.41 C64.65 28.06, 53.97 29.11, 45.1 29.04 C36.23 28.96, 25.81 27.67, 18.7 25.95 C11.58 24.23, 5.17 21.37, 2.41 18.73 C-0.36 16.1, -0.62 12.77, 2.1 10.13 C4.82 7.49, 11.39 4.6, 18.7 2.9 C26.02 1.2, 41.37 0.32, 45.99 -0.07 C50.62 -0.47, 46.4 0.26, 46.44 0.53 M47.57 -0.22 C56.04 -0.26, 66.46 1.57, 73.4 3.4 C80.34 5.23, 86.74 8.05, 89.19 10.78 C91.65 13.51, 91.2 17.16, 88.13 19.77 C85.05 22.38, 78.1 24.89, 70.73 26.46 C63.35 28.02, 52.76 29.19, 43.87 29.15 C34.97 29.11, 24.45 28.02, 17.37 26.24 C10.3 24.46, 3.9 21.23, 1.44 18.48 C-1.02 15.74, -0.47 12.5, 2.64 9.78 C5.75 7.06, 12.71 3.78, 20.1 2.16 C27.49 0.54, 42.46 0.36, 46.99 0.07 C51.52 -0.21, 47.23 0.23, 47.28 0.47" stroke="#1e1e1e" stroke-width="2" fill="none"></path></g><g stroke-linecap="round" transform="translate(159.49999999999977 934.4175179061262) rotate(0 17.5 19.5)"><path d="M17.83 0.2 C21.36 -0.04, 25.82 1.97, 28.67 4.66 C31.52 7.35, 34.25 12.22, 34.93 16.33 C35.61 20.43, 34.74 25.66, 32.75 29.29 C30.76 32.91, 26.6 36.69, 22.98 38.07 C19.36 39.45, 14.46 39.11, 11.02 37.56 C7.58 36.01, 4.14 32.39, 2.34 28.78 C0.53 25.16, -0.48 19.98, 0.18 15.88 C0.84 11.77, 3.27 6.81, 6.3 4.15 C9.32 1.49, 16.33 0.59, 18.32 -0.08 C20.31 -0.75, 18.3 -0.21, 18.23 0.16 M18.07 -0.15 C21.51 -0.3, 26.1 2.1, 28.96 4.94 C31.81 7.78, 34.66 12.72, 35.2 16.9 C35.75 21.08, 34.32 26.52, 32.22 30 C30.12 33.49, 26.11 36.57, 22.59 37.79 C19.07 39.02, 14.6 38.95, 11.11 37.33 C7.62 35.71, 3.42 31.82, 1.65 28.1 C-0.13 24.38, -0.48 18.95, 0.44 15 C1.36 11.05, 4.26 6.89, 7.17 4.38 C10.08 1.87, 16.12 0.61, 17.91 -0.05 C19.71 -0.71, 17.84 0.09, 17.94 0.43" stroke="none" stroke-width="0" fill="#ffffff"></path><path d="M18.55 -0.19 C22.06 -0.26, 26.44 2.16, 29.14 5.05 C31.85 7.94, 34.29 12.95, 34.77 17.15 C35.24 21.35, 34.04 26.75, 31.99 30.26 C29.93 33.76, 25.95 37.03, 22.42 38.18 C18.89 39.34, 14.18 38.85, 10.81 37.18 C7.44 35.51, 3.97 31.8, 2.2 28.16 C0.44 24.52, -0.53 19.34, 0.22 15.34 C0.96 11.34, 3.63 6.71, 6.69 4.15 C9.75 1.58, 16.54 0.53, 18.59 -0.04 C20.63 -0.61, 18.92 0.38, 18.97 0.73 M18.63 -0.24 C22.17 -0.25, 26.34 2.57, 29.03 5.49 C31.71 8.41, 34.21 13.12, 34.73 17.26 C35.26 21.39, 34.18 26.86, 32.17 30.31 C30.16 33.77, 26.21 36.76, 22.67 37.99 C19.14 39.22, 14.4 39.2, 10.96 37.68 C7.52 36.16, 3.83 32.6, 2.02 28.87 C0.22 25.14, -0.66 19.37, 0.12 15.29 C0.89 11.2, 3.67 6.95, 6.68 4.36 C9.69 1.76, 16.28 0.34, 18.15 -0.31 C20.03 -0.95, 17.91 0.07, 17.93 0.48" stroke="#1e1e1e" stroke-width="2" fill="none"></path></g><g transform="translate(77.84799226639552 703.2206451456962) rotate(0 52.734375 21.600000000000023)"><text x="0" y="0" font-family="Cascadia, Segoe UI Emoji" font-size="36px" fill="#1e1e1e" text-anchor="start" style="white-space: pre;" direction="ltr" dominant-baseline="text-before-edge">CaBot</text></g><g transform="translate(303.02919199670544 1282.4662891048872) rotate(0 42.1875 21.600000000000023)"><text x="0" y="0" font-family="Cascadia, Segoe UI Emoji" font-size="36px" fill="#1e1e1e" text-anchor="start" style="white-space: pre;" direction="ltr" dominant-baseline="text-before-edge">User</text></g><g mask="url(#mask-YK9yIUkCsEtwqhsgRG1ig)" stroke-linecap="round"><g transform="translate(253.99166639123996 1006.5791950273726) rotate(0 63.607437878415965 -90.02898899714268)"><path d="M0 0 C45.38 -65.73, 90.75 -130.93, 127.21 -180.06 M0 0 C40.46 -58.07, 81.04 -115.01, 127.21 -180.06" stroke="#1e1e1e" stroke-width="1" fill="none"></path></g><g transform="translate(253.99166639123996 1006.5791950273726) rotate(0 63.607437878415965 -90.02898899714268)"><path d="M127.43 -181.53 L123.22 -166.34 L112.68 -173.9 L127.69 -180.1" stroke="none" stroke-width="0" fill="#1e1e1e" fill-rule="evenodd"></path><path d="M127.21 -180.06 C125.4 -174.41, 123.78 -169.01, 124.51 -165.3 M127.21 -180.06 C126.48 -175.91, 125.23 -170.18, 124.51 -165.3 M124.51 -165.3 C120.85 -168.32, 118.85 -169.72, 114.18 -172.64 M124.51 -165.3 C122.33 -166.98, 119.19 -168.52, 114.18 -172.64 M114.18 -172.64 C120.07 -174.86, 124.9 -178.97, 127.21 -180.06 M114.18 -172.64 C118.71 -175.6, 122.54 -178.27, 127.21 -180.06 M127.21 -180.06 C127.21 -180.06, 127.21 -180.06, 127.21 -180.06 M127.21 -180.06 C127.21 -180.06, 127.21 -180.06, 127.21 -180.06" stroke="#1e1e1e" stroke-width="1" fill="none"></path></g></g><mask id="mask-YK9yIUkCsEtwqhsgRG1ig"><rect x="0" y="0" fill="#fff" width="481.2065421480719" height="1286.6371730216579"></rect><rect x="222.67722926965592" y="894.9502060302299" fill="#000" width="189.84375" height="43.199999999999996" opacity="1"></rect></mask><g transform="translate(222.67722926965592 894.95020603023) rotate(0 94.921875 21.599999999999966)"><text x="94.921875" y="0" font-family="Cascadia, Segoe UI Emoji" font-size="36px" fill="#1e1e1e" text-anchor="middle" style="white-space: pre;" direction="ltr" dominant-baseline="text-before-edge">footprint</text></g><g stroke-linecap="round" transform="translate(1653.3430427009291 10) rotate(0 520.9092321480041 53.51807179602787)"><path d="M0 0 C389.44 -1.66, 777.3 -2.84, 1041.82 0 M0 0 C221.33 -2.93, 441.72 -2.78, 1041.82 0 M1041.82 0 C1038.83 25.64, 1039.6 50.21, 1041.82 107.04 M1041.82 0 C1041.13 29.26, 1040.98 57.55, 1041.82 107.04 M1041.82 107.04 C697.6 107.29, 352.58 107.16, 0 107.04 M1041.82 107.04 C719.79 111.4, 398.02 110.84, 0 107.04 M0 107.04 C-1.34 81.42, -1.2 59.83, 0 0 M0 107.04 C1.46 69.13, 0.49 32.9, 0 0" stroke="#1e1e1e" stroke-width="1" fill="none"></path></g><g transform="translate(1710.1897748489334 41.918071796027874) rotate(0 464.0625 21.599999999999998)"><text x="464.0625" y="0" font-family="Cascadia, Segoe UI Emoji" font-size="36px" fill="#1e1e1e" text-anchor="middle" style="white-space: pre;" direction="ltr" dominant-baseline="text-before-edge">Legend: name_used_for_cabot (parameter_name)</text></g></svg>